<svg width="46" height="30" viewBox="0 0 46 30" fill="none" xmlns="http://www.w3.org/2000/svg">
<path d="M41.8357 8.63721H4.15214C2.63457 10.4161 1.78156 12.6649 1.73828 15.0008C1.78302 17.3853 2.6665 19.6781 4.23412 21.4781H41.7537C43.3214 19.6781 44.2048 17.3853 44.2496 15.0008C44.2063 12.6649 43.3533 10.4161 41.8357 8.63721Z" fill="#201A17"/>
<path d="M18.0902 17.2443V11.2261H15.5352V18.8761H17.1702H18.0902H22.8952V17.2443H18.0902Z" fill="white"/>
<path d="M21.0547 11.2261V12.8579H24.5297V18.8761H27.185V12.8579H30.5553V11.2261H21.0547Z" fill="white"/>
<path d="M12.6369 18.8761H15.0325L11.3434 11.2261H8.07329L4.49805 18.8761H6.88458L7.55864 17.5124H11.9309L12.6369 18.8761ZM8.40121 15.7624L9.69468 13.1124L11.061 15.7624H8.40121Z" fill="white"/>
<path d="M35.708 11.3643C32.233 11.3643 31.0078 12.8143 31.0078 15.0006C31.0078 17.187 31.9187 18.9279 36.0177 18.9279C40.2033 18.9279 41.0276 17.1688 41.0276 15.0006C41.0276 12.8324 39.7979 11.3643 35.708 11.3643ZM36.1179 17.2733C34.3827 17.2733 33.7678 16.2688 33.7678 15.0279C33.7678 14.4191 34.0101 13.8352 34.4415 13.4048C34.8728 12.9743 35.4578 12.7324 36.0678 12.7324C36.6778 12.7324 37.2628 12.9743 37.6942 13.4048C38.1255 13.8352 38.3678 14.4191 38.3678 15.0279C38.397 15.331 38.359 15.6369 38.2566 15.9237C38.1541 16.2106 37.9898 16.4714 37.7751 16.6879C37.5604 16.9043 37.3007 17.0709 37.0143 17.176C36.728 17.2811 36.4219 17.3221 36.1179 17.2961V17.2733Z" fill="white"/>
<path d="M22.9909 30C16.8743 30 11.1174 28.4545 6.78158 25.6455C2.44574 22.8364 0 19.0318 0 15C0 10.9682 2.40931 7.18636 6.78158 4.35455C11.1539 1.52273 16.8743 0 22.9909 0C29.1075 0 34.8644 1.54545 39.2002 4.35455C43.536 7.16364 46 10.9682 46 15C46 19.0318 43.5725 22.8136 39.2002 25.6455C34.8279 28.4773 29.1075 30 22.9909 30ZM22.9909 0.613636C10.6529 0.613636 0.614852 7.06818 0.614852 15C0.614852 22.9318 10.6347 29.3864 22.9909 29.3864C35.3471 29.3864 45.3669 22.9318 45.3669 15C45.3669 7.06818 35.3289 0.613636 22.9909 0.613636Z" fill="#201A17"/>
<path d="M22.9903 28.7674C31.1154 28.7674 38.1748 25.8128 41.7501 21.4946H4.23047C7.81027 25.8128 14.8651 28.7674 22.9903 28.7674Z" fill="#0095E3"/>
<path d="M22.9941 1.23145C14.8052 1.23145 7.70026 4.23145 4.15234 8.63599H41.8359C38.288 4.23145 31.183 1.23145 22.9941 1.23145Z" fill="#EE0001"/>
</svg>
