<svg width="32" height="30" viewBox="0 0 32 30" fill="none" xmlns="http://www.w3.org/2000/svg">
<g clip-path="url(#clip0)">
<path d="M32.0825 23.2593H-0.0820312V30.0002H32.0825V23.2593Z" fill="#FFC600"/>
<path d="M3.04822 25.5634C3.05062 25.5592 3.05189 25.5545 3.05189 25.5497C3.05189 25.5449 3.05062 25.5402 3.04822 25.5361C3.10765 25.0815 3.9625 24.8725 4.1865 24.827C4.19228 24.8264 4.19812 24.8269 4.20365 24.8287C4.20919 24.8305 4.21428 24.8334 4.2186 24.8372C4.22292 24.8411 4.22636 24.8458 4.22871 24.8511C4.23106 24.8564 4.23225 24.8621 4.23222 24.8679V24.9997C4.23222 24.9997 4.49279 24.3225 4.62079 24.3952C4.84059 24.6477 4.99723 24.9483 5.07793 25.2725C5.10079 25.3952 5.07793 25.427 5.03222 25.4315C5.02656 25.4353 5.02192 25.4403 5.01871 25.4463C5.0155 25.4522 5.01382 25.4589 5.01382 25.4656C5.01382 25.4724 5.0155 25.479 5.01871 25.485C5.02192 25.4909 5.02656 25.496 5.03222 25.4997C5.0847 25.554 5.14874 25.596 5.21965 25.6225C5.24331 25.6352 5.26946 25.6427 5.2963 25.6444C5.32315 25.6462 5.35006 25.6422 5.37522 25.6327C5.40037 25.6233 5.42318 25.6085 5.44208 25.5895C5.46099 25.5704 5.47555 25.5476 5.48479 25.5225C5.49158 25.5161 5.50058 25.5125 5.50993 25.5125C5.51928 25.5125 5.52828 25.5161 5.53507 25.5225C5.71258 25.599 5.85683 25.736 5.94193 25.9088C5.94474 25.9168 5.94999 25.9238 5.95695 25.9287C5.96391 25.9336 5.97225 25.9363 5.98079 25.9363C5.98933 25.9363 5.99766 25.9336 6.00463 25.9287C6.01159 25.9238 6.01684 25.9168 6.01965 25.9088C6.00723 25.7123 5.95433 25.5205 5.86422 25.3452C5.86127 25.338 5.86043 25.3301 5.8618 25.3225C5.86317 25.3149 5.8667 25.3078 5.87197 25.3021C5.87724 25.2963 5.88404 25.2922 5.89157 25.2902C5.8991 25.2882 5.90705 25.2883 5.9145 25.2906C5.924 25.2941 5.93445 25.294 5.94386 25.2903C5.95327 25.2866 5.96097 25.2795 5.9655 25.2705C5.97002 25.2615 5.97106 25.2512 5.96839 25.2415C5.96573 25.2318 5.95957 25.2234 5.95107 25.2179C5.75507 25.0736 5.5453 24.9488 5.32479 24.8452C5.26993 24.7861 4.75793 24.2543 4.61165 24.2588C4.46536 24.2634 4.34193 24.5861 4.29165 24.7134C4.2878 24.7174 4.28319 24.7205 4.27809 24.7227C4.27298 24.7249 4.26748 24.726 4.26193 24.726C4.25638 24.726 4.25088 24.7249 4.24578 24.7227C4.24067 24.7205 4.23606 24.7174 4.23222 24.7134L3.9625 24.5452C3.95646 24.5412 3.94946 24.5388 3.9422 24.5383C3.93494 24.5379 3.92769 24.5393 3.92119 24.5426C3.91468 24.5458 3.90916 24.5507 3.90517 24.5567C3.90119 24.5628 3.89889 24.5698 3.8985 24.577V24.7861C3.89683 24.7938 3.89351 24.801 3.88878 24.8073C3.88405 24.8135 3.87801 24.8187 3.87107 24.8225C2.9705 25.1134 2.88365 25.4543 2.8745 25.5406C2.87806 25.5494 2.87806 25.5592 2.8745 25.5679C2.58997 25.7616 2.35637 26.0203 2.19336 26.3225C2.43685 26.0267 2.72528 25.7706 3.04822 25.5634Z" fill="#000100"/>
<path d="M4.64384 24.7363C4.60727 24.7363 4.48384 25.0045 4.52955 25.0409L4.86784 25.3181C4.85835 25.1052 4.77976 24.9011 4.64384 24.7363Z" fill="#000100"/>
<path d="M4.82801 26.4183C4.88287 26.4547 5.07944 26.6183 5.07944 26.6183C4.98922 26.5016 4.9453 26.356 4.95601 26.2092C4.976 26.0655 4.96111 25.9192 4.9126 25.7824C4.86409 25.6456 4.78336 25.5223 4.67715 25.4229C4.76847 25.7593 4.73605 26.1171 4.58572 26.4319C4.52771 26.5352 4.50696 26.655 4.52692 26.7716C4.54688 26.8882 4.60634 26.9945 4.69544 27.0729C4.80002 27.1708 4.86504 27.3033 4.8783 27.4456C4.8783 27.4456 5.0063 26.9547 4.8783 26.7683C4.7503 26.5819 4.77772 26.3638 4.82801 26.4183Z" fill="#000100"/>
<path d="M4.57141 25.5864C4.57141 25.5864 4.33827 25.4637 4.21484 25.6455C4.14815 25.8169 4.14012 26.0054 4.19199 26.1819C4.19656 26.0228 4.38856 25.5637 4.57141 25.5864Z" fill="#000100"/>
<path d="M4.11343 26.182C3.98086 26.1092 3.72029 26.4047 3.60143 26.3956C3.52613 26.3741 3.45646 26.3365 3.39725 26.2854C3.33804 26.2344 3.29072 26.1712 3.25858 26.1001C3.21743 25.991 3.06658 26.0729 3.01172 26.1501C3.01172 26.1501 3.17629 26.091 3.16715 26.2001C3.158 26.3092 3.094 26.6547 3.51458 26.6092C3.93515 26.5638 3.97172 26.8365 3.97172 26.8365C3.97172 26.8365 3.97172 26.532 3.79343 26.4638C3.79343 26.4638 3.926 26.3229 4.05858 26.4092C4.19115 26.4956 4.25058 26.741 4.20943 27.1729C4.39229 26.741 4.32372 26.291 4.11343 26.182Z" fill="#000100"/>
<path d="M6.17615 27.3865C6.18833 27.2083 6.16022 27.0297 6.09387 26.8637C6.05626 26.6859 6.04854 26.5031 6.07101 26.3228C5.91783 26.693 5.88584 27.1017 5.97958 27.491C6.02987 27.9774 5.39444 28.3637 5.39444 28.3637C5.52392 28.0488 5.56806 27.7055 5.52244 27.3683C5.57504 27.3953 5.6229 27.4306 5.66415 27.4728C5.74404 27.1266 5.7202 26.7648 5.59558 26.4319C5.67896 26.4689 5.75729 26.5163 5.82872 26.5728C5.81449 26.4101 5.76092 26.2532 5.67257 26.1155C5.58422 25.9778 5.46371 25.8633 5.32129 25.7819C5.44414 25.9447 5.537 26.1278 5.59558 26.3228C5.48817 26.2848 5.37818 26.2544 5.26644 26.2319C5.44494 26.535 5.5469 26.8766 5.56358 27.2274C5.4643 27.1584 5.35682 27.1019 5.24358 27.0592C5.31252 27.2082 5.34821 27.3702 5.34821 27.5342C5.34821 27.6982 5.31252 27.8602 5.24358 28.0092C5.23767 27.9217 5.20934 27.8372 5.16129 27.7637C5.13992 27.868 5.08247 27.9614 4.99894 28.0279C4.91542 28.0943 4.8111 28.1295 4.70415 28.1274C5.01958 27.6228 4.47558 27.4001 4.20587 27.5728C4.01985 27.7378 3.90384 27.9669 3.88129 28.2137C3.78132 28.2321 3.67809 28.2186 3.58621 28.1754C3.49432 28.1322 3.41844 28.0613 3.36929 27.9728C3.31444 27.8637 3.46529 27.7501 3.49729 27.7501C3.65963 27.7087 3.81405 27.6411 3.95444 27.5501C4.11444 27.4501 4.22415 27.2456 3.95444 26.9865C3.68472 26.7274 3.36929 26.8956 3.01729 27.0865C2.66529 27.2774 2.71558 27.2046 2.58758 27.1274C2.45958 27.0501 2.34987 26.841 2.45501 26.7501C2.56015 26.6592 2.55558 26.4183 2.40929 26.3956C2.26301 26.3728 2.03901 26.4819 2.01158 26.5774C1.98415 26.6728 2.27672 26.8774 2.27672 26.8774C2.37464 27.0748 2.53533 27.2346 2.73387 27.3319C2.73893 27.334 2.74437 27.3351 2.74987 27.3351C2.75536 27.3351 2.7608 27.334 2.76587 27.3319C2.83444 27.4228 2.97158 27.541 3.02644 27.541C3.02644 27.541 3.02644 27.541 3.05387 27.5092V27.4365C3.05387 27.3683 3.05387 27.2683 3.05387 27.1592C3.17366 27.072 3.30844 27.0073 3.45158 26.9683C3.72587 26.9228 3.69844 27.1319 3.69844 27.1319C3.54836 27.2659 3.44575 27.4444 3.40587 27.641C3.38459 27.6524 3.36465 27.6661 3.34644 27.6819C3.27028 27.6757 3.19591 27.6557 3.12701 27.6228C3.12701 27.6228 3.09958 27.6228 3.09501 27.6228C3.09044 27.6228 3.09501 27.6228 3.09501 27.6501C3.1025 27.7875 3.15555 27.9186 3.24587 28.0228C3.26025 28.074 3.28179 28.123 3.30987 28.1683C3.53387 28.5183 4.03672 28.3774 4.03672 28.3774C4.05194 28.151 4.11256 27.93 4.21501 27.7274C4.2424 27.6876 4.28061 27.6563 4.32518 27.6372C4.36975 27.6182 4.41885 27.6121 4.46675 27.6197C4.51466 27.6274 4.5594 27.6484 4.59577 27.6803C4.63213 27.7122 4.65862 27.7538 4.67215 27.8001C4.71787 28.0183 4.40244 28.2956 4.40244 28.2956C4.63425 28.3228 4.86905 28.2833 5.07901 28.1819C5.03749 28.4239 4.93353 28.651 4.77729 28.841C5.1221 28.7696 5.44371 28.6143 5.71336 28.389C5.98301 28.1637 6.19228 27.8755 6.32244 27.5501C6.48526 27.2491 6.56703 26.9114 6.55982 26.5697C6.55261 26.228 6.45666 25.894 6.28129 25.6001C6.39061 25.8886 6.43775 26.1967 6.41963 26.5044C6.40152 26.8121 6.31857 27.1126 6.17615 27.3865ZM2.39558 26.5637C2.32244 26.5637 2.31787 26.6183 2.35901 26.6592C2.40015 26.7001 2.35901 26.7728 2.31329 26.7774C2.23688 26.7309 2.17265 26.667 2.12587 26.591C2.12587 26.591 2.30872 26.4501 2.35901 26.4865C2.40929 26.5228 2.39558 26.5637 2.39558 26.5637ZM3.02644 27.4456V27.5001C2.9516 27.4539 2.88514 27.3955 2.82987 27.3274C2.90197 27.2944 2.97084 27.2548 3.03558 27.2092C3.03101 27.3046 3.02644 27.3865 3.02644 27.4456ZM3.58872 27.6046C3.61158 27.6046 3.65272 27.3274 3.85844 27.2274C3.92701 27.1956 4.00472 27.391 3.85844 27.491C3.78131 27.5537 3.68771 27.5932 3.58872 27.6046ZM3.25044 27.9319C3.20515 27.858 3.17414 27.7763 3.15901 27.691C3.21608 27.7142 3.27606 27.7295 3.33729 27.7365C3.28623 27.7895 3.25549 27.8587 3.25044 27.9319Z" fill="#000100"/>
<path d="M3.01656 26.6366C2.89073 26.7365 2.78786 26.862 2.71484 27.0048C2.71484 27.0048 3.01656 26.7048 3.12627 26.7366C3.13859 26.7397 3.15013 26.7453 3.16015 26.753C3.17017 26.7608 3.17845 26.7705 3.18447 26.7816C3.19049 26.7928 3.19412 26.805 3.19512 26.8176C3.19612 26.8302 3.19447 26.8428 3.19027 26.8548C3.31827 26.7002 3.16284 26.5593 3.01656 26.6366Z" fill="#000100"/>
<path d="M2.96711 26.4864C3.03568 26.4637 3.05854 26.4864 3.05854 26.4864C3.02654 26.3046 2.77511 26.5636 2.65625 26.7682C2.74862 26.6627 2.85293 26.5681 2.96711 26.4864Z" fill="#000100"/>
<path d="M2.86641 26.2912C2.7929 26.3375 2.73422 26.4038 2.69727 26.4821C2.77747 26.4062 2.87026 26.3447 2.97155 26.3003C2.95712 26.2882 2.93926 26.2808 2.92043 26.2792C2.9016 26.2775 2.88273 26.2817 2.86641 26.2912Z" fill="#000100"/>
<path d="M3.98071 25.0998C3.98071 25.0726 3.92585 24.9953 3.86185 25.0089C3.71945 25.0968 3.58756 25.2005 3.46871 25.318C3.24014 25.518 3.95785 25.1317 3.98071 25.0998Z" fill="#000100"/>
<path d="M3.36054 25.7503C3.27826 25.7912 3.27826 25.9184 3.36054 25.9139C3.44283 25.9093 3.47483 25.7821 3.48397 25.7775C3.54351 25.7796 3.60263 25.767 3.65607 25.7408C3.70951 25.7146 3.75561 25.6757 3.79026 25.6275H3.88169C3.82973 25.7269 3.76851 25.8213 3.69883 25.9093C3.61197 26.0003 3.5754 26.0275 3.52969 26.0412C3.47539 26.0522 3.41941 26.0522 3.36511 26.0412C3.39254 26.0866 3.57997 26.1912 3.77197 25.9821C3.96397 25.773 3.9914 25.5912 4.05997 25.5275L3.92283 25.473L4.3114 25.2412C4.4394 25.1684 4.24283 24.9912 4.18797 24.9775C4.13311 24.9639 4.18797 25.0503 4.18797 25.0775C4.18797 25.1048 3.98226 25.3093 3.89083 25.4639C3.81205 25.4564 3.73257 25.4657 3.65769 25.4912C3.49311 25.523 3.4794 25.5821 3.4794 25.5821C3.4794 25.5821 3.37883 25.5457 3.38797 25.4957C3.37342 25.5253 3.371 25.5594 3.38123 25.5908C3.39147 25.6222 3.41355 25.6484 3.44283 25.6639C3.44283 25.6639 3.43826 25.7093 3.36054 25.7503ZM3.64397 25.6139C3.67552 25.6064 3.70842 25.6064 3.73997 25.6139C3.71915 25.6415 3.69227 25.6641 3.66138 25.6798C3.63049 25.6956 3.59639 25.7041 3.56169 25.7048C3.58527 25.6668 3.61834 25.6355 3.65769 25.6139H3.64397Z" fill="#000100"/>
<path d="M4.29739 23.75C3.72397 23.7491 3.16317 23.9174 2.68594 24.2335C2.20872 24.5496 1.83653 24.9993 1.61647 25.5258C1.3964 26.0523 1.33835 26.6319 1.44967 27.1912C1.56098 27.7506 1.83665 28.2645 2.2418 28.668C2.64695 29.0714 3.16337 29.3464 3.72571 29.4579C4.28804 29.5695 4.87103 29.5127 5.40089 29.2947C5.93074 29.0767 6.38367 28.7074 6.70234 28.2333C7.02101 27.7593 7.1911 27.202 7.1911 26.6318C7.1911 25.8683 6.88638 25.136 6.34383 24.5957C5.80129 24.0554 5.06527 23.7512 4.29739 23.75ZM4.29739 29.3091C3.76356 29.31 3.24146 29.1534 2.79722 28.859C2.35298 28.5647 2.00657 28.1459 1.80186 27.6557C1.59716 27.1654 1.54336 26.6258 1.64728 26.1052C1.75121 25.5846 2.00818 25.1063 2.38565 24.7309C2.76313 24.3556 3.24414 24.1001 3.76776 23.9968C4.29138 23.8934 4.83406 23.9469 5.32708 24.1505C5.82011 24.354 6.2413 24.6985 6.53732 25.1402C6.83333 25.5819 6.99087 26.101 6.98996 26.6318C6.98875 27.3415 6.70468 28.0218 6.19999 28.5236C5.6953 29.0254 5.01113 29.3079 4.29739 29.3091Z" fill="#000100"/>
<path d="M14.2776 25.7408C13.8101 25.7074 13.3411 25.7804 12.9062 25.9544L13.1759 26.4544C13.4403 26.3268 13.7327 26.2674 14.0262 26.2817C14.5382 26.2817 14.4833 26.5726 14.4833 26.5726V26.7272C13.2308 26.7272 12.7873 27.0454 12.7645 27.5363C12.7416 28.0272 13.1988 28.3726 14.1359 28.3726C14.5763 28.3998 15.018 28.3459 15.4388 28.2135V26.5726C15.4296 26.2044 15.1142 25.7817 14.2776 25.7408ZM14.4468 27.8772C14.4468 27.8772 13.6285 27.9999 13.6285 27.5272C13.6285 27.1272 14.4468 27.1772 14.4468 27.1772V27.8772Z" fill="#000100"/>
<path d="M23.2327 25.7408C22.7651 25.7074 22.2961 25.7804 21.8612 25.9544L22.131 26.4544C22.3953 26.3268 22.6877 26.2674 22.9812 26.2817C23.4932 26.2817 23.4384 26.5726 23.4384 26.5726V26.7272C22.1858 26.7272 21.7424 27.0454 21.7195 27.5363C21.6967 28.0272 22.1767 28.3726 23.091 28.3726C23.5314 28.3998 23.9731 28.3459 24.3938 28.2135V26.5726C24.3847 26.2044 24.0692 25.7817 23.2327 25.7408ZM23.4018 27.8772C23.4018 27.8772 22.5835 27.9999 22.5835 27.5272C22.5835 27.1272 23.4018 27.1772 23.4018 27.1772V27.8772Z" fill="#000100"/>
<path d="M16.9144 27.4001L16.3658 25.8047H15.3281L16.5121 28.3001L16.0367 29.3638H17.0333L18.6287 25.8047H17.6276L16.9144 27.4001Z" fill="#000100"/>
<path d="M11.0356 24.9092L10.2996 27.0546L9.56813 24.9092H8.46184L7.95898 28.3319H8.89613L9.12927 26.0319L10.007 28.3319H10.2996H10.5921L11.4744 26.0319L11.703 28.3319H12.6447L12.1373 24.9092H11.0356Z" fill="#000100"/>
<path d="M20.6255 25.8091C20.3177 25.795 20.0094 25.8272 19.7112 25.9046V24.6455H18.7695V28.1819C18.7695 28.1819 18.9615 28.3728 19.9672 28.3864C20.973 28.4001 21.5535 27.8091 21.5535 27.0955C21.5535 26.0501 21.0004 25.8091 20.6255 25.8091ZM19.8895 27.7819C19.8335 27.7639 19.7785 27.7426 19.725 27.7182V26.4455C19.981 26.3182 20.6392 26.2273 20.6392 27.0546C20.6392 27.8819 20.0084 27.8182 19.8895 27.7819Z" fill="#000100"/>
<path d="M26.0987 25.7366C25.6266 25.7248 25.1549 25.7737 24.6953 25.882V28.3775H25.6507V26.6411C25.6507 26.1866 26.4325 26.2639 26.4325 26.6411V28.3775H27.3879V26.332C27.3879 26.0866 26.9993 25.7366 26.0987 25.7366Z" fill="#000100"/>
<path d="M29.6269 26.9591L30.5732 25.8046H29.5035L28.6944 26.8001V24.6455H27.7344V28.3773H28.6944V27.1728L29.6041 28.3728H30.6509L29.6269 26.9591Z" fill="#000100"/>
<path d="M14.9528 13.2361C14.7425 9.26335 12.7997 6.2179 9.14252 6.2179C6.44995 6.2179 5.10138 7.68153 4.57109 8.44517V0.640625H1.37109V20.527H4.62138V12.5452C5.35738 9.9679 6.30824 8.49063 8.59395 8.42244C10.8797 8.35426 12.0682 11.6043 11.7071 13.6634C11.346 15.7224 10.7151 19.1179 5.48538 18.377C5.48538 18.377 6.14366 20.7815 9.32538 20.4588C12.5071 20.1361 15.1585 17.2088 14.9528 13.2361Z" fill="#593539"/>
<path d="M21.7288 18.5593V6.77295H18.4785V18.5593C18.4785 18.5593 18.5699 20.4911 20.3711 20.4911C20.8488 20.5228 21.3253 20.4154 21.7426 20.1821C22.1599 19.9489 22.4998 19.5998 22.7208 19.1775C22.1402 19.2139 21.7288 18.823 21.7288 18.5593Z" fill="#593539"/>
<path d="M29.2932 18.5593V6.77295H26.0566V18.5593C26.0566 18.5593 26.1481 20.4911 27.9446 20.4911C28.423 20.5231 28.9003 20.4159 29.3184 20.1827C29.7365 19.9494 30.0772 19.6001 30.2989 19.1775C29.7138 19.2139 29.2932 18.823 29.2932 18.5593Z" fill="#593539"/>
<path d="M27.7346 3.32728H24.9277C25.0649 4.00237 25.4495 4.6027 26.0067 5.01173C26.564 5.42076 27.2543 5.6093 27.9435 5.54077C28.6327 5.47223 29.2718 5.1515 29.7365 4.64083C30.2013 4.13017 30.4587 3.46601 30.4587 2.77728C30.4587 2.08855 30.2013 1.42439 29.7365 0.913723C29.2718 0.403059 28.6327 0.0823285 27.9435 0.0137916C27.2543 -0.0547454 26.564 0.133802 26.0067 0.54283C25.4495 0.951859 25.0649 1.55219 24.9277 2.22728H27.7346V3.32728Z" fill="#EA1C33"/>
<path d="M20.4429 3.32728H23.2497C23.1125 4.00237 22.728 4.6027 22.1707 5.01173C21.6134 5.42076 20.9232 5.6093 20.2339 5.54077C19.5447 5.47223 18.9057 5.1515 18.4409 4.64083C17.9761 4.13017 17.7188 3.46601 17.7188 2.77728C17.7188 2.08855 17.9761 1.42439 18.4409 0.913723C18.9057 0.403059 19.5447 0.0823285 20.2339 0.0137916C20.9232 -0.0547454 21.6134 0.133802 22.1707 0.54283C22.728 0.951859 23.1125 1.55219 23.2497 2.22728H20.4429V3.32728Z" fill="#EA1C33"/>
</g>
<defs>
<clipPath id="clip0">
<rect width="32" height="30" fill="white"/>
</clipPath>
</defs>
</svg>
