<svg width="191" height="30" viewBox="0 0 191 30" fill="none" xmlns="http://www.w3.org/2000/svg">
<g clip-path="url(#clip0)">
<path d="M55.5773 24.277C54.2092 24.8729 52.7283 25.166 51.2364 25.1361C49.8252 25.1505 48.4238 24.9007 47.1045 24.3997C45.8757 23.9398 44.7551 23.2307 43.8133 22.3171C42.8715 21.4035 42.1288 20.305 41.6318 19.0906C41.0924 17.7744 40.8234 16.363 40.8409 14.9406C40.8205 13.5005 41.0942 12.0713 41.6455 10.7406C42.1515 9.52598 42.909 8.43229 43.8682 7.53153C44.8317 6.63823 45.9647 5.94733 47.2 5.49971C49.8312 4.54502 52.7142 4.54502 55.3455 5.49971C56.5761 5.9228 57.6799 6.64983 58.5546 7.61334L55.3727 10.7952C54.9367 10.1962 54.3414 9.73167 53.6545 9.45425C52.9628 9.16018 52.2198 9.0057 51.4682 8.99971C50.687 8.9889 49.9124 9.14382 49.1955 9.45425C48.5307 9.74588 47.9322 10.1696 47.4364 10.6997C46.9364 11.2418 46.5473 11.8764 46.2909 12.5679C46.0102 13.3224 45.87 14.122 45.8773 14.927C45.8695 15.7468 46.0096 16.5614 46.2909 17.3315C46.5417 18.0226 46.9263 18.6575 47.4227 19.1997C47.9088 19.7209 48.4988 20.1344 49.1545 20.4133C49.8516 20.7157 50.6038 20.8705 51.3636 20.8679C52.2067 20.8881 53.0418 20.7008 53.7955 20.3224C54.4537 19.9869 55.0236 19.5011 55.4591 18.9043L58.7091 21.9633C57.842 22.949 56.7742 23.7378 55.5773 24.277Z" fill="#76111C"/>
<path d="M60.4551 24.6181V5.29541H65.1505V24.6181H60.4551Z" fill="#76111C"/>
<path d="M86.3352 24.6181L86.4443 10.9454H86.3625L81.3625 24.6181H78.0852L73.1807 10.9454H73.0989L73.208 24.6181H68.8125V5.29541H75.4534L79.8534 17.6863H79.9625L84.1716 5.29541H90.908V24.6181H86.3352Z" fill="#76111C"/>
<path d="M109.646 18.9954C109.676 19.9232 109.46 20.8425 109.018 21.659C108.613 22.3629 108.042 22.9573 107.355 23.3909C106.629 23.8416 105.828 24.1602 104.991 24.3318C104.095 24.5247 103.181 24.6207 102.264 24.6181H94.582V5.29541H102.273C103.036 5.29911 103.797 5.37674 104.546 5.52723C105.296 5.66968 106.016 5.93703 106.677 6.31814C107.311 6.68834 107.845 7.20799 108.232 7.83177C108.658 8.56917 108.866 9.41251 108.832 10.2636C108.869 11.2259 108.559 12.1695 107.959 12.9227C107.362 13.6337 106.573 14.1589 105.687 14.4363V14.4909C106.225 14.5799 106.746 14.7516 107.232 15C108.185 15.4776 108.931 16.2854 109.332 17.2727C109.549 17.8208 109.655 18.4061 109.646 18.9954ZM104.35 10.909C104.369 10.6239 104.309 10.3391 104.176 10.0858C104.044 9.83246 103.845 9.62037 103.6 9.47268C102.912 9.12927 102.145 8.97254 101.377 9.01814H99.0911V13.0045H101.605C102.323 13.0436 103.035 12.8526 103.637 12.459C103.873 12.2788 104.062 12.0432 104.187 11.773C104.311 11.5027 104.367 11.2061 104.35 10.909ZM105 18.559C105.03 18.2229 104.96 17.8854 104.798 17.5892C104.636 17.293 104.39 17.0516 104.091 16.8954C103.338 16.558 102.516 16.4023 101.691 16.4409H99.0911V20.859H101.714C102.093 20.8577 102.472 20.8258 102.846 20.7636C103.216 20.7066 103.575 20.5916 103.909 20.4227C104.256 20.2555 104.544 19.989 104.739 19.6571C104.933 19.3251 105.024 18.9429 105 18.559Z" fill="#76111C"/>
<path d="M119.545 5.29541H125.304C126.046 5.29697 126.787 5.37465 127.513 5.52723C128.225 5.66788 128.906 5.93581 129.522 6.31814C130.12 6.69781 130.616 7.21733 130.968 7.83177C131.365 8.56923 131.558 9.39933 131.527 10.2363C131.545 11.2057 131.214 12.1493 130.595 12.8954C129.955 13.6608 129.073 14.1851 128.095 14.3818V14.4363C129.269 14.5522 130.367 15.0729 131.199 15.909C131.623 16.3572 131.951 16.8869 132.164 17.466C132.377 18.045 132.469 18.6613 132.436 19.2772C132.448 20.0348 132.279 20.7844 131.943 21.4635C131.607 22.1426 131.114 22.7317 130.504 23.1818C129.819 23.6773 129.049 24.0425 128.231 24.259C127.255 24.5252 126.247 24.6537 125.236 24.6409H119.545V5.29541ZM121.509 13.7545H125.454C125.936 13.7535 126.416 13.6986 126.886 13.5909C127.357 13.4863 127.805 13.2969 128.209 13.0318C128.613 12.7652 128.946 12.405 129.181 11.9818C129.441 11.4862 129.568 10.9318 129.549 10.3727C129.567 9.82522 129.44 9.28284 129.181 8.79996C128.937 8.37509 128.594 8.01503 128.181 7.74996C127.731 7.46435 127.232 7.26548 126.709 7.16359C126.11 7.04129 125.501 6.98188 124.89 6.98632H121.477L121.509 13.7545ZM121.509 22.9272H125.168C125.844 22.9302 126.519 22.8631 127.181 22.7272C127.78 22.6087 128.354 22.3873 128.877 22.0727C129.35 21.7822 129.747 21.3834 130.036 20.909C130.344 20.3849 130.502 19.7854 130.49 19.1772C130.528 18.632 130.429 18.0859 130.203 17.5883C129.977 17.0907 129.631 16.6573 129.195 16.3272C128.327 15.6954 127.104 15.3863 125.522 15.3863H121.509V22.9272Z" fill="#76111C"/>
<path d="M136.45 24.6181H134.291L142.646 5.29541H144.546L152.846 24.6181H150.659L148.541 19.5454H138.541L136.45 24.6181ZM139.286 17.7272H147.805L143.546 7.47723L139.286 17.7272Z" fill="#76111C"/>
<path d="M169.091 21.7545H169.145V5.29541H171.113V24.6181H168.636L157.409 7.99541H157.354V24.6181H155.391V5.29541H157.845L169.091 21.7545Z" fill="#76111C"/>
<path d="M177.909 13.9727H177.936L187.132 5.29541H189.945L180.2 14.0545L190.491 24.6181H187.595L177.936 14.3272H177.909V24.6181H175.945V5.29541H177.909V13.9727Z" fill="#76111C"/>
<path d="M32.2451 0H0.0996094V29.9136H32.2451V0Z" fill="#76111C"/>
<path d="M28.7405 14.9548H11.9496L3.59961 5.3457H20.3905L28.7405 14.9548Z" fill="white"/>
<path d="M28.7405 14.9546H11.9496L3.59961 24.5682H20.3905L28.7405 14.9546Z" fill="#EB2428"/>
</g>
<defs>
<clipPath id="clip0">
<rect width="190.968" height="30" fill="white"/>
</clipPath>
</defs>
</svg>
