<?xml version="1.0" encoding="UTF-8" standalone="no"?>
<svg
   xmlns:dc="http://purl.org/dc/elements/1.1/"
   xmlns:cc="http://creativecommons.org/ns#"
   xmlns:rdf="http://www.w3.org/1999/02/22-rdf-syntax-ns#"
   xmlns:svg="http://www.w3.org/2000/svg"
   xmlns="http://www.w3.org/2000/svg"
   xmlns:sodipodi="http://sodipodi.sourceforge.net/DTD/sodipodi-0.dtd"
   xmlns:inkscape="http://www.inkscape.org/namespaces/inkscape"
   inkscape:version="1.0 (4035a4fb49, 2020-05-01)"
   sodipodi:docname="correct.svg"
   xml:space="preserve"
   style="enable-background:new 0 0 512 512;"
   viewBox="0 0 512 512"
   y="0px"
   x="0px"
   id="Capa_1"
   version="1.1"><metadata
   id="metadata43"><rdf:RDF><cc:Work
       rdf:about=""><dc:format>image/svg+xml</dc:format><dc:type
         rdf:resource="http://purl.org/dc/dcmitype/StillImage" /></cc:Work></rdf:RDF></metadata><defs
   id="defs41" /><sodipodi:namedview
   inkscape:current-layer="Capa_1"
   inkscape:window-maximized="1"
   inkscape:window-y="32"
   inkscape:window-x="0"
   inkscape:cy="126.82709"
   inkscape:cx="-393.44864"
   inkscape:zoom="0.32910156"
   showgrid="false"
   id="namedview39"
   inkscape:window-height="834"
   inkscape:window-width="1428"
   inkscape:pageshadow="2"
   inkscape:pageopacity="0"
   guidetolerance="10"
   gridtolerance="10"
   objecttolerance="10"
   borderopacity="1"
   bordercolor="#666666"
   pagecolor="#ffffff" />
<g
   style="fill:#00c30c;fill-opacity:1"
   id="g6">
	<g
   style="fill:#00c30c;fill-opacity:1"
   id="g4">
		<path
   style="fill:#00c30c;fill-opacity:1"
   id="path2"
   d="M437.019,74.98C388.667,26.629,324.38,0,256,0C187.619,0,123.332,26.629,74.98,74.98C26.629,123.332,0,187.62,0,256    s26.629,132.667,74.98,181.019C123.332,485.371,187.62,512,256,512s132.667-26.629,181.019-74.98    C485.371,388.667,512,324.38,512,256S485.371,123.333,437.019,74.98z M378.306,195.073L235.241,338.139    c-2.929,2.929-6.768,4.393-10.606,4.393c-3.839,0-7.678-1.464-10.607-4.393l-80.334-80.333c-5.858-5.857-5.858-15.354,0-21.213    c5.857-5.858,15.355-5.858,21.213,0l69.728,69.727l132.458-132.46c5.857-5.858,15.355-5.858,21.213,0    C384.164,179.718,384.164,189.215,378.306,195.073z" />
	</g>
</g>
<g
   id="g8">
</g>
<g
   id="g10">
</g>
<g
   id="g12">
</g>
<g
   id="g14">
</g>
<g
   id="g16">
</g>
<g
   id="g18">
</g>
<g
   id="g20">
</g>
<g
   id="g22">
</g>
<g
   id="g24">
</g>
<g
   id="g26">
</g>
<g
   id="g28">
</g>
<g
   id="g30">
</g>
<g
   id="g32">
</g>
<g
   id="g34">
</g>
<g
   id="g36">
</g>
</svg>
