<?xml version="1.0" encoding="UTF-8" standalone="no"?>
<svg
   xmlns:dc="http://purl.org/dc/elements/1.1/"
   xmlns:cc="http://creativecommons.org/ns#"
   xmlns:rdf="http://www.w3.org/1999/02/22-rdf-syntax-ns#"
   xmlns:svg="http://www.w3.org/2000/svg"
   xmlns="http://www.w3.org/2000/svg"
   xmlns:sodipodi="http://sodipodi.sourceforge.net/DTD/sodipodi-0.dtd"
   xmlns:inkscape="http://www.inkscape.org/namespaces/inkscape"
   inkscape:version="1.0 (4035a4fb49, 2020-05-01)"
   sodipodi:docname="facebook (1).svg"
   xml:space="preserve"
   style="enable-background:new 0 0 167.657 167.657;"
   viewBox="0 0 167.657 167.657"
   y="0px"
   x="0px"
   id="Capa_1"
   version="1.1"><metadata
   id="metadata98"><rdf:RDF><cc:Work
       rdf:about=""><dc:format>image/svg+xml</dc:format><dc:type
         rdf:resource="http://purl.org/dc/dcmitype/StillImage" /></cc:Work></rdf:RDF></metadata><defs
   id="defs96" /><sodipodi:namedview
   inkscape:current-layer="Capa_1"
   inkscape:window-maximized="1"
   inkscape:window-y="32"
   inkscape:window-x="0"
   inkscape:cy="149.38301"
   inkscape:cx="115.8688"
   inkscape:zoom="1.0050281"
   showgrid="false"
   id="namedview94"
   inkscape:window-height="834"
   inkscape:window-width="1428"
   inkscape:pageshadow="2"
   inkscape:pageopacity="0"
   guidetolerance="10"
   gridtolerance="10"
   objecttolerance="10"
   borderopacity="1"
   bordercolor="#666666"
   pagecolor="#ffffff" />
<g
   style="fill:#ffffff"
   id="g61">
	<path
   id="path59"
   d="M83.829,0.349C37.532,0.349,0,37.881,0,84.178c0,41.523,30.222,75.911,69.848,82.57v-65.081H49.626   v-23.42h20.222V60.978c0-20.037,12.238-30.956,30.115-30.956c8.562,0,15.92,0.638,18.056,0.919v20.944l-12.399,0.006   c-9.72,0-11.594,4.618-11.594,11.397v14.947h23.193l-3.025,23.42H94.026v65.653c41.476-5.048,73.631-40.312,73.631-83.154   C167.657,37.881,130.125,0.349,83.829,0.349z"
   style="fill:#ffffff" />
</g>
<g
   id="g63">
</g>
<g
   id="g65">
</g>
<g
   id="g67">
</g>
<g
   id="g69">
</g>
<g
   id="g71">
</g>
<g
   id="g73">
</g>
<g
   id="g75">
</g>
<g
   id="g77">
</g>
<g
   id="g79">
</g>
<g
   id="g81">
</g>
<g
   id="g83">
</g>
<g
   id="g85">
</g>
<g
   id="g87">
</g>
<g
   id="g89">
</g>
<g
   id="g91">
</g>
</svg>
