<svg width="89" height="30" viewBox="0 0 89 30" fill="none" xmlns="http://www.w3.org/2000/svg">
<path fill-rule="evenodd" clip-rule="evenodd" d="M2.57027 0H86.4297C87.1107 0.00239583 87.763 0.275177 88.2446 0.758844C88.7261 1.24251 88.9976 1.89781 89 2.58182V27.4182C88.9976 28.1022 88.7261 28.7575 88.2446 29.2412C87.763 29.7248 87.1107 29.9976 86.4297 30H2.57027C1.88932 29.9976 1.23695 29.7248 0.755449 29.2412C0.273946 28.7575 0.00238511 28.1022 0 27.4182V2.58182C0.00238511 1.89781 0.273946 1.24251 0.755449 0.758844C1.23695 0.275177 1.88932 0.00239583 2.57027 0V0Z" fill="#F0F0F0"/>
<path fill-rule="evenodd" clip-rule="evenodd" d="M88.0056 20.3638V27.4183C88.0044 27.8392 87.8387 28.2427 87.5442 28.542C87.2496 28.8413 86.8498 29.0124 86.4308 29.0183H2.57136C2.14964 29.0159 1.74588 28.8466 1.44767 28.547C1.14947 28.2475 0.980892 27.8419 0.978516 27.4183V20.3638H88.0056Z" fill="#FECF22"/>
<path d="M88.0056 10.6499H0.978516V19.3499H88.0056V10.6499Z" fill="#006AB4"/>
<path fill-rule="evenodd" clip-rule="evenodd" d="M2.57136 0.981934H86.4308C86.8521 0.98433 87.2554 1.15381 87.5529 1.45348C87.8504 1.75315 88.018 2.15874 88.0191 2.58193V9.63648H0.978516V2.58193C0.980892 2.15832 1.14947 1.75274 1.44767 1.4532C1.74588 1.15366 2.14964 0.98432 2.57136 0.981934Z" fill="#D61627"/>
<path fill-rule="evenodd" clip-rule="evenodd" d="M14.2757 7.05448C19.3354 5.50716 24.5129 4.37914 29.7562 3.68176C33.9095 3.1769 38.089 2.92039 42.2726 2.91357H46.8792C51.033 2.92142 55.1825 3.18098 59.3052 3.69085C64.5157 4.39045 69.6611 5.51384 74.6906 7.04994C75.3352 7.22198 75.9275 7.55146 76.4146 8.00903C76.6721 8.25923 76.876 8.55965 77.0137 8.89185C77.1515 9.22405 77.2202 9.58102 77.2156 9.94085V20.059C77.2198 20.4181 77.1509 20.7743 77.0132 21.1057C76.8755 21.4371 76.6718 21.7368 76.4146 21.9863C75.9275 22.4439 75.3352 22.7733 74.6906 22.9454C69.6616 24.4837 64.5161 25.6071 59.3052 26.3045C55.1824 26.8136 51.033 27.0747 46.8792 27.0863H43.327C38.8667 27.1228 34.4084 26.8814 29.9779 26.3636C24.6587 25.6696 19.4064 24.5308 14.2757 22.959C13.6311 22.787 13.0389 22.4575 12.5517 21.9999C12.2953 21.7477 12.0931 21.4453 11.9577 21.1115C11.8223 20.7776 11.7565 20.4194 11.7643 20.059V9.94539C11.7597 9.58556 11.8284 9.22859 11.9662 8.89639C12.1039 8.56419 12.3078 8.26377 12.5652 8.01357C13.0486 7.55794 13.636 7.22859 14.2757 7.05448Z" fill="#E6E6E6"/>
<path fill-rule="evenodd" clip-rule="evenodd" d="M54.6102 18.4183C54.2436 17.9092 54.6102 17.0546 54.85 16.6001C55.0898 16.1455 55.5242 15.4546 56.1578 15.5773C56.4519 16.6319 55.5152 18.5364 54.6102 18.4319V18.4183ZM34.8445 15.5001C35.297 16.6864 33.7675 18.8592 33.2471 18.2637C32.8217 17.8092 33.8127 15.2546 34.8445 15.5001ZM38.1025 18.2683L37.9215 17.8637C37.4057 17.9773 36.5957 18.4546 36.021 18.3183C35.7088 17.6001 37.9623 12.8637 38.3921 11.4319L37.2609 11.4819C36.9441 12.0092 36.3558 13.8592 36.0662 14.241C34.0661 14.0319 33.2335 14.6092 32.419 15.6819C31.0977 17.4183 32.0706 17.5955 31.0615 18.1637C30.1836 18.6637 30.3103 18.3819 30.2469 18.3092C29.8804 17.991 30.9031 15.7955 30.9981 15.3183C31.1248 14.6955 30.8035 14.1955 30.2288 14.2273C29.6542 14.2592 29.2831 14.6455 28.8985 14.8546C27.5409 15.5773 28.8215 12.7819 25.1879 15.3637C24.9073 15.5637 24.2014 15.9728 24.0656 16.1092C24.0928 15.8819 25.1426 13.6137 25.3553 13.0819C25.7625 12.0592 26.1743 10.9955 26.5273 9.95462C25.206 9.86825 21.2782 10.5501 20.0835 11.6228C17.821 13.6455 20.536 16.3228 22.2963 14.2637C21.8664 13.9546 21.2058 14.2637 21.1062 13.4592C21.0549 13.1965 21.0767 12.9246 21.1693 12.6736C21.262 12.4226 21.4218 12.2021 21.6311 12.0364C22.0836 11.691 24.0521 11.3319 24.7489 11.2001C24.5998 11.7029 24.4246 12.1975 24.224 12.6819C23.4457 14.8592 22.4909 18.1864 19.6989 18.2728C18.2509 18.3183 17.8345 17.6683 17.3232 16.6728C17.1536 16.9078 17.041 17.1794 16.9947 17.466C16.9483 17.7525 16.9694 18.0459 17.0562 18.3228C17.1431 18.5558 17.2767 18.7684 17.4488 18.9475C17.6208 19.1265 17.8275 19.2682 18.0563 19.3637C20.2193 20.4137 22.1289 18.6455 23.6674 17.4501C24.0521 17.1501 25.4775 15.6819 26.2332 16.0455C26.6495 16.8728 25.4458 18.6137 25.4232 19.4728L26.8486 19.5001C27.102 18.791 27.3011 18.0183 27.5545 17.2728C27.7626 16.641 28.0568 15.5092 28.8804 16.0819C29.2016 16.9319 27.8532 18.7137 28.5907 19.3092C29.3283 19.9046 31.075 18.691 31.4823 18.441C31.8036 18.8955 31.7991 19.4819 32.6226 19.6183C32.9285 19.654 33.2385 19.6256 33.5329 19.5348C33.8273 19.4441 34.0998 19.2929 34.3331 19.091C34.5684 19.3819 34.5096 19.6683 35.0481 19.6183C35.5866 19.5683 37.1523 18.5319 38.089 18.2546L38.1025 18.2683ZM65.1627 17.0546C65.0994 16.3092 65.9184 15.2773 66.5203 15.3046C66.7149 15.7592 66.3755 16.2137 66.1583 16.4864C65.9411 16.7592 65.6153 17.1001 65.1627 17.0546ZM43.6911 15.2773L43.854 15.7819C44.3065 15.6546 44.7952 15.3637 45.2432 15.4864C45.3835 16.341 44.0938 18.6683 43.8856 19.6683L45.2884 19.641C45.5939 18.9477 45.8554 18.2357 46.0713 17.5092C46.293 16.9137 46.5555 15.7501 47.37 16.0364C47.8496 16.991 46.5419 18.7046 46.465 19.641H48.0669C48.361 18.7819 48.6958 17.7183 49.0443 16.8683C49.2162 16.4501 49.3972 15.791 50.0217 15.9592C50.7276 16.1592 49.5058 17.491 49.5194 18.6864C49.5082 18.8101 49.5236 18.9348 49.5646 19.0519C49.6057 19.169 49.6714 19.2759 49.7573 19.3652C49.8432 19.4545 49.9473 19.5241 50.0624 19.5694C50.1775 19.6146 50.301 19.6344 50.4244 19.6273C51.1213 19.5592 52.2933 18.5955 52.8906 18.4637C53.1667 19.0819 53.2255 19.4728 53.9586 19.5864C54.6916 19.7001 55.1622 19.3546 55.66 19.091L55.7007 19.141L55.8048 19.291C55.9541 19.5092 56.0356 19.6728 56.3931 19.7092C57.5741 19.8273 59.3208 17.9319 60.0132 17.0319C60.7734 16.0183 60.4657 16.0955 61.4431 16.0092C61.2304 16.9183 60.1715 18.4273 61.0675 19.3273C61.9635 20.2273 63.7419 19.0137 64.2849 18.6955C64.7826 19.2501 65.0496 19.741 66.2352 19.6864C67.1719 19.6455 67.6923 19.2637 68.4435 19.0455C69.3485 20.5546 72.3396 19.0728 72.2265 18.1364C71.8373 18.0637 71.3893 18.591 70.9956 18.8137C70.4481 19.1092 69.8915 18.9228 69.8779 18.2819C70.1043 17.2754 70.4069 16.2876 70.7829 15.3273H71.688L71.9866 14.2955H71.3531C71.4708 13.2137 72.0409 12.2864 72.2581 11.3273L70.9866 11.3773L69.9684 14.2092L69.0408 14.2637L68.7828 15.3092H69.5159C69.3228 16.3894 68.8982 17.4146 68.2715 18.3137C67.7421 18.9773 65.8506 19.3728 65.5066 18.2137C65.9592 17.7137 66.7239 17.6001 67.3167 16.5501C68.8326 13.9183 65.8098 13.6001 64.6016 15.4319C63.8278 16.5773 64.0677 16.9319 64.1084 18.2864C62.588 19.1364 62.054 19.3046 62.1897 17.8092C62.3255 16.3137 62.5608 16.5183 62.8097 16.2501C62.915 16.1505 62.9791 16.0147 62.9892 15.8698C62.9992 15.7249 62.9545 15.5815 62.864 15.4683C62.6242 15.2183 62.2078 15.441 61.7599 15.2773C61.4748 14.5637 61.9635 14.4455 62.1581 14.0592C61.8886 14.0504 61.6197 14.0276 61.3526 13.991C61.0268 13.8683 61.2078 13.7183 60.9499 13.6364C60.5878 13.7728 60.5652 13.7864 60.4385 14.191C60.072 15.3546 60.2077 15.6092 59.5697 16.5046C59.2258 16.991 58.0583 18.6319 57.2528 18.3228C56.8818 17.8273 58.2981 14.9501 58.4746 14.2319C57.0311 14.1228 57.2483 14.3955 57.0447 14.6228C55.7143 14.0183 55.0129 14.5319 54.1984 15.2592C53.0264 16.3046 52.9766 17.8092 52.8408 17.9864C52.4834 18.2183 51.7639 18.5364 51.239 18.3455C51.0851 17.741 52.0173 15.9773 52.1711 15.2592C52.325 14.541 51.8951 14.1001 51.1349 14.2955C50.5647 14.4455 50.3475 14.9773 49.8226 15.0455C49.3701 14.7319 49.3701 14.0773 48.4651 14.2319C47.827 14.341 47.7863 14.841 47.0668 14.9864C47.0534 14.9651 47.0428 14.9422 47.0351 14.9183L46.9537 14.7183C46.9175 14.6183 46.836 14.3092 46.6776 14.2228C45.9084 14.1137 44.4558 15.0546 43.6911 15.2773Z" fill="#006AB4"/>
<path fill-rule="evenodd" clip-rule="evenodd" d="M40.8544 14.8637C41.2635 14.8658 41.6592 15.0103 41.9742 15.2725C42.2892 15.5347 42.504 15.8984 42.582 16.3018C42.6601 16.7052 42.5965 17.1233 42.4023 17.4849C42.208 17.8465 41.895 18.1294 41.5165 18.2853C41.138 18.4412 40.7174 18.4606 40.3263 18.34C39.9352 18.2195 39.5978 17.9666 39.3714 17.6243C39.145 17.282 39.0438 16.8715 39.0848 16.4627C39.1258 16.0538 39.3066 15.6719 39.5964 15.3818C39.7616 15.2162 39.9578 15.0851 40.1737 14.9962C40.3897 14.9072 40.621 14.8622 40.8544 14.8637ZM40.8544 13.3228C40.0889 13.3219 39.3469 13.5878 38.7547 14.075C38.1625 14.5623 37.7569 15.2407 37.607 15.9948C37.4571 16.7488 37.5722 17.5317 37.9326 18.21C38.2931 18.8884 38.8766 19.4202 39.5836 19.7147C40.2907 20.0093 41.0776 20.0484 41.8102 19.8254C42.5427 19.6024 43.1757 19.1311 43.601 18.4918C44.0264 17.8525 44.2178 17.0849 44.1428 16.3197C44.0677 15.5545 43.7308 14.8391 43.1894 14.2955C42.883 13.9871 42.519 13.7425 42.1183 13.5755C41.7177 13.4086 41.2882 13.3227 40.8544 13.3228ZM42.9314 14.5455C42.4511 14.0628 41.819 13.7623 41.1429 13.6953C40.4667 13.6283 39.7883 13.7988 39.2233 14.1779C38.6583 14.5569 38.2416 15.121 38.0443 15.7741C37.8469 16.4271 37.881 17.1287 38.1409 17.7593C38.4008 18.3899 38.8703 18.9105 39.4694 19.2324C40.0685 19.5543 40.7602 19.6575 41.4266 19.5245C42.093 19.3915 42.6929 19.0306 43.1241 18.5031C43.5553 17.9756 43.791 17.3143 43.7912 16.6318C43.7921 16.2443 43.7165 15.8604 43.569 15.5023C43.4214 15.1442 43.2047 14.819 42.9314 14.5455ZM40.8544 14.0909C40.2666 14.0933 39.6977 14.3001 39.2446 14.6762C38.7914 15.0523 38.482 15.5744 38.3688 16.1539C38.2557 16.7333 38.3459 17.3342 38.6241 17.8544C38.9023 18.3745 39.3512 18.7818 39.8946 19.007C40.438 19.2321 41.0423 19.2613 41.6047 19.0894C42.1671 18.9175 42.6528 18.5552 42.9793 18.0642C43.3057 17.5732 43.4528 16.9837 43.3954 16.3961C43.338 15.8084 43.0797 15.2589 42.6645 14.8409C42.4277 14.6012 42.1456 14.4113 41.8348 14.2825C41.5239 14.1537 41.1906 14.0886 40.8544 14.0909ZM42.3884 15.1C42.0333 14.7448 41.5666 14.5242 41.0678 14.4756C40.569 14.4271 40.0688 14.5538 39.6525 14.834C39.2361 15.1142 38.9293 15.5306 38.7842 16.0125C38.6391 16.4944 38.6648 17.0118 38.8568 17.4768C39.0487 17.9419 39.3952 18.3257 39.8372 18.563C40.2792 18.8003 40.7894 18.8764 41.2809 18.7784C41.7725 18.6804 42.2151 18.4143 42.5333 18.0254C42.8516 17.6365 43.0258 17.1489 43.0265 16.6455C43.0271 16.3583 42.971 16.0739 42.8615 15.8086C42.752 15.5433 42.5912 15.3025 42.3884 15.1ZM41.8499 15.6455C41.7192 15.5141 41.5641 15.4099 41.3932 15.3387C41.2224 15.2676 41.0393 15.231 40.8544 15.231C40.6695 15.231 40.4864 15.2676 40.3156 15.3387C40.1448 15.4099 39.9896 15.5141 39.8589 15.6455C39.7281 15.7768 39.6243 15.9327 39.5535 16.1042C39.4827 16.2758 39.4463 16.4597 39.4463 16.6455C39.4463 16.8312 39.4827 17.0151 39.5535 17.1867C39.6243 17.3583 39.7281 17.5142 39.8589 17.6455C40.1229 17.9107 40.481 18.0597 40.8544 18.0597C41.2278 18.0597 41.5859 17.9107 41.8499 17.6455C42.114 17.3803 42.2623 17.0206 42.2623 16.6455C42.2623 16.2704 42.114 15.9107 41.8499 15.6455Z" fill="#D61627"/>
<path fill-rule="evenodd" clip-rule="evenodd" d="M14.6894 8.46835C26.2194 5.03653 34.1474 4.37744 43.7452 4.37744H45.4104C54.9132 4.37744 62.8321 5.05471 74.2988 8.46835C75.0726 8.70017 75.7649 9.13199 75.7649 9.94562V20.0593C75.7649 20.8683 75.0726 21.3002 74.2988 21.532C62.8321 24.9456 54.9268 25.6229 45.4104 25.6229H44.1887C34.3963 25.6229 26.3959 25.0183 14.6894 21.532C13.9156 21.3002 13.2188 20.8683 13.2188 20.0593V9.94562C13.2188 9.13199 13.9156 8.70017 14.6894 8.46835ZM43.9533 6.59108C34.9936 6.62744 26.9661 6.96835 16.4633 9.69562C15.6804 9.90017 14.9971 10.3638 14.9971 11.1729V18.8274C14.9971 19.6411 15.6804 20.1002 16.4633 20.3047C26.871 23.0093 34.8669 23.3683 43.7452 23.4093H45.2521C54.1303 23.3683 62.1126 23.0093 72.534 20.3047C73.3123 20.1002 74.0001 19.6411 74.0001 18.8274V11.1729C74.0001 10.3638 73.3123 9.90017 72.534 9.69562C62.0312 6.96835 53.981 6.62744 45.0439 6.59108H43.9533Z" fill="#D61627"/>
</svg>
