<?xml version="1.0" encoding="UTF-8" standalone="no"?>
<svg
   xmlns:dc="http://purl.org/dc/elements/1.1/"
   xmlns:cc="http://creativecommons.org/ns#"
   xmlns:rdf="http://www.w3.org/1999/02/22-rdf-syntax-ns#"
   xmlns:svg="http://www.w3.org/2000/svg"
   xmlns="http://www.w3.org/2000/svg"
   id="svg1541"
   version="1.1"
   viewBox="0 0 64 64">
  <metadata
     id="metadata1545">
    <rdf:RDF>
      <cc:Work
         rdf:about="">
        <dc:format>image/svg+xml</dc:format>
        <dc:type
           rdf:resource="http://purl.org/dc/dcmitype/StillImage" />
        <dc:title>icon PHP Hosting</dc:title>
      </cc:Work>
    </rdf:RDF>
  </metadata>
  <defs
     id="defs1510">
    <style
       id="style1508">.cls-1{fill:#fff;}.cls-1,.cls-2{stroke:#298eea;stroke-miterlimit:10;stroke-width:2px;}.cls-2{fill:none;stroke-linecap:round;}.cls-3{fill:#c9c9c9;}</style>
  </defs>
  <title
     id="title1512">icon PHP Hosting</title>
  <g
     id="MySQL">
    <path
       id="path1514"
       d="M51.25,41.13v10c0,1.791-8.451,3.242-18.875,3.242S13.5,52.921,13.5,51.13V41.174"
       class="cls-1" />
    <path
       id="path1516"
       d="M51.25,31.5v10c0,1.791-8.451,3.242-18.875,3.242S13.5,43.291,13.5,41.5V31.544"
       class="cls-1" />
    <path
       id="path1518"
       d="M51.25,21.452v10c0,1.791-8.451,3.242-18.875,3.242S13.5,33.243,13.5,31.452V21.5"
       class="cls-1" />
    <path
       id="path1520"
       d="M51.25,11.45v10c0,1.791-8.451,3.242-18.875,3.242S13.5,23.241,13.5,21.45V11.494"
       class="cls-1" />
    <ellipse
       id="ellipse1522"
       ry="3.242"
       rx="18.875"
       cy="11.45"
       cx="32.375"
       class="cls-1" />
    <path
       id="path1524"
       d="M51.25,16.869c0,1.791-8.451,3.242-18.875,3.242"
       class="cls-2" />
    <circle
       id="circle1526"
       r="1"
       cy="18.51"
       cx="17.219"
       class="cls-3" />
    <path
       id="path1528"
       d="M51.25,26.452c0,1.791-8.451,3.242-18.875,3.242"
       class="cls-2" />
    <circle
       id="circle1530"
       r="1"
       cy="28.094"
       cx="17.219"
       class="cls-3" />
    <path
       id="path1532"
       d="M51.25,36.035c0,1.791-8.451,3.242-18.875,3.242"
       class="cls-2" />
    <circle
       id="circle1534"
       r="1"
       cy="37.677"
       cx="17.219"
       class="cls-3" />
    <path
       id="path1536"
       d="M51.25,45.619c0,1.791-8.451,3.242-18.875,3.242"
       class="cls-2" />
    <circle
       id="circle1538"
       r="1"
       cy="47.26"
       cx="17.219"
       class="cls-3" />
  </g>
</svg>
