<svg width="112" height="30" viewBox="0 0 112 30" fill="none" xmlns="http://www.w3.org/2000/svg">
<path d="M13.4471 0H4.73845C4.44998 0.000583253 4.17111 0.104211 3.95163 0.292381C3.73214 0.480552 3.58633 0.741016 3.54022 1.02727L0.00883003 23.4818C-0.00749628 23.5862 -0.00113 23.6929 0.0274909 23.7947C0.0561119 23.8964 0.106308 23.9906 0.174627 24.071C0.242946 24.1513 0.327766 24.2158 0.423253 24.2601C0.518739 24.3043 0.622626 24.3272 0.727768 24.3273H4.88766C5.17626 24.3263 5.45506 24.2219 5.67389 24.0328C5.89272 23.8436 6.03722 23.5822 6.08137 23.2954L7.03091 17.2409C7.07603 16.955 7.22094 16.6946 7.43968 16.5064C7.65841 16.3182 7.93668 16.2144 8.22462 16.2136H10.9828C16.7207 16.2136 20.026 13.4227 20.8987 7.89091C21.2876 5.46818 20.8987 3.56818 19.7864 2.23636C18.5475 0.772727 16.3635 0 13.4471 0ZM14.4509 8.18181C13.9761 11.3636 11.5887 11.3636 9.27815 11.3636H7.96236L8.86669 5.49545C8.89448 5.3236 8.98195 5.16721 9.11357 5.05404C9.24518 4.94087 9.41243 4.87824 9.58562 4.87727H10.187C11.7605 4.87727 13.2436 4.87727 14.0123 5.78636C14.4645 6.32272 14.6091 7.12272 14.4328 8.22272" fill="#283B82"/>
<path d="M39.4881 8.09978H35.3147C35.142 8.10091 34.9754 8.1637 34.8445 8.27693C34.7136 8.39017 34.6271 8.54649 34.6002 8.71796L34.4149 9.89069L34.121 9.46341C33.2212 8.14523 31.209 7.72705 29.1969 7.72705C24.5849 7.72705 20.651 11.2407 19.8824 16.1634C19.4845 18.618 20.0497 20.968 21.4378 22.6043C22.7084 24.0907 24.5261 24.7134 26.6874 24.7134C27.7609 24.7238 28.8254 24.5167 29.8175 24.1043C30.8096 23.692 31.7088 23.0829 32.4615 22.3134L32.2716 23.477C32.2548 23.5838 32.2618 23.6929 32.292 23.7966C32.3221 23.9003 32.3748 23.996 32.4461 24.0768C32.5174 24.1577 32.6057 24.2216 32.7045 24.2641C32.8033 24.3066 32.9103 24.3265 33.0177 24.3225H36.7751C37.0631 24.3218 37.3413 24.218 37.5601 24.0297C37.7788 23.8415 37.9237 23.5811 37.9689 23.2952L40.2297 8.94523C40.2472 8.83877 40.2409 8.72972 40.2113 8.626C40.1817 8.52227 40.1295 8.42647 40.0586 8.34553C39.9876 8.26459 39.8995 8.20055 39.8009 8.15804C39.7022 8.11553 39.5954 8.09563 39.4881 8.09978ZM33.6733 16.2816C33.5058 17.4115 32.9328 18.4407 32.0624 19.1751C31.1919 19.9095 30.0842 20.2982 28.9482 20.268C28.4273 20.3004 27.9058 20.2157 27.4216 20.0199C26.9374 19.8241 26.5028 19.5222 26.1493 19.1361C25.8312 18.7239 25.6075 18.2462 25.4942 17.7371C25.3808 17.2279 25.3807 16.6999 25.4937 16.1907C25.6519 15.0616 26.2138 14.0291 27.0742 13.2862C27.9347 12.5433 29.0349 12.141 30.1691 12.1543C30.6876 12.1267 31.2057 12.2146 31.6865 12.4119C32.1672 12.6091 32.5986 12.9108 32.9499 13.2952C33.2743 13.7091 33.5055 14.1888 33.6273 14.7013C33.7491 15.2138 33.7586 15.7468 33.6552 16.2634" fill="#283B82"/>
<path d="M61.7027 8.10018H57.5112C57.3169 8.10392 57.1262 8.1546 56.9555 8.24795C56.7847 8.3413 56.6388 8.47458 56.53 8.63654L50.7288 17.1956L48.2781 8.96836C48.2025 8.71758 48.0487 8.49784 47.8395 8.34153C47.6303 8.18522 47.3767 8.10061 47.116 8.10018H42.9968C42.8781 8.09838 42.7607 8.1258 42.6549 8.18007C42.5491 8.23433 42.4581 8.31379 42.3899 8.41151C42.3217 8.50923 42.2783 8.62224 42.2635 8.74069C42.2487 8.85915 42.2629 8.97944 42.305 9.09109L46.9261 22.7274L42.5853 28.8865C42.519 28.9954 42.4821 29.1198 42.4784 29.2474C42.4746 29.375 42.5042 29.5014 42.5641 29.614C42.624 29.7266 42.7121 29.8214 42.8197 29.8892C42.9274 29.9569 43.0508 29.9952 43.1777 30.0002H47.3602C47.5558 30.0009 47.7486 29.9537 47.9219 29.8626C48.0953 29.7715 48.2439 29.6393 48.3549 29.4774L62.2996 9.24564C62.376 9.13635 62.421 9.00802 62.4296 8.87472C62.4383 8.74142 62.4102 8.60831 62.3486 8.48998C62.2869 8.37165 62.194 8.27267 62.0801 8.20391C61.9662 8.13515 61.8356 8.09926 61.7027 8.10018Z" fill="#283B82"/>
<path d="M75.5787 0H66.8655C66.5776 0.000743767 66.2993 0.104533 66.0806 0.29277C65.8618 0.481008 65.7169 0.741393 65.6718 1.02727L62.1495 23.4818C62.1332 23.5855 62.1394 23.6914 62.1675 23.7925C62.1956 23.8935 62.245 23.9874 62.3123 24.0675C62.3796 24.1477 62.4633 24.2124 62.5577 24.2572C62.6521 24.302 62.755 24.3259 62.8594 24.3273H67.3312C67.5336 24.3274 67.7294 24.2545 67.8829 24.1219C68.0364 23.9893 68.1374 23.8057 68.1677 23.6045L69.167 17.2409C69.2121 16.955 69.3571 16.6946 69.5758 16.5064C69.7945 16.3182 70.0728 16.2144 70.3607 16.2136H73.1189C78.8569 16.2136 82.1622 13.4227 83.0348 7.89091C83.4237 5.46818 83.0348 3.56818 81.9225 2.23636C80.6881 0.772727 78.4951 0 75.5787 0ZM76.5825 8.18181C76.1077 11.3636 73.7113 11.3636 71.4097 11.3636H70.094L70.9983 5.49545C71.0242 5.32359 71.1105 5.16675 71.2416 5.05334C71.3726 4.93994 71.5398 4.87748 71.7127 4.87727H72.3548C73.9238 4.87727 75.4114 4.87727 76.1755 5.78636C76.6277 6.32272 76.7724 7.12272 76.5961 8.22272" fill="#469BDB"/>
<path d="M101.618 8.10004H97.4495C97.2758 8.09916 97.1076 8.16113 96.9756 8.27463C96.8436 8.38813 96.7566 8.54559 96.7305 8.71823L96.5451 9.89095L96.2558 9.46368C95.3514 8.1455 93.3393 7.70459 91.3272 7.70459C86.7197 7.70459 82.7813 11.2182 82.0172 16.1409C81.6193 18.5955 82.1845 20.9455 83.5681 22.5819C84.8432 24.0864 86.6609 24.7137 88.8222 24.7137C89.8958 24.7249 90.9606 24.5181 91.9528 24.1057C92.945 23.6933 93.8441 23.0838 94.5963 22.3137L94.4109 23.4773C94.3938 23.5818 94.3996 23.6889 94.4279 23.7909C94.4562 23.893 94.5064 23.9876 94.5749 24.0681C94.6433 24.1486 94.7285 24.2131 94.8244 24.2571C94.9202 24.3011 95.0245 24.3235 95.1299 24.3228H98.8873C99.1753 24.322 99.4536 24.2182 99.6723 24.03C99.891 23.8418 100.036 23.5814 100.081 23.2955L102.342 8.9455C102.358 8.84108 102.352 8.73435 102.323 8.63265C102.295 8.53095 102.244 8.43668 102.176 8.35634C102.108 8.276 102.023 8.21149 101.927 8.16724C101.832 8.123 101.728 8.10007 101.623 8.10004H101.618ZM95.8036 16.2819C95.6405 17.4119 95.0718 18.4429 94.2048 19.1806C93.3377 19.9182 92.2322 20.3116 91.0966 20.2864C90.5751 20.3186 90.0529 20.2337 89.5681 20.038C89.0832 19.8422 88.6477 19.5405 88.2932 19.1546C87.9778 18.7409 87.7561 18.263 87.6436 17.7542C87.5311 17.2455 87.5306 16.7181 87.6421 16.2091C87.8002 15.0808 88.3614 14.049 89.2209 13.3062C90.0804 12.5634 91.1795 12.1605 92.3129 12.1728C92.8321 12.1454 93.3508 12.2335 93.8323 12.4307C94.3137 12.6279 94.7459 12.9294 95.0982 13.3137C95.4227 13.7275 95.6538 14.2073 95.7756 14.7198C95.8974 15.2323 95.907 15.7653 95.8036 16.2819Z" fill="#469BDB"/>
<path d="M106.533 0.618182L102.956 23.4818C102.94 23.5862 102.946 23.6929 102.975 23.7947C103.003 23.8964 103.054 23.9906 103.122 24.071C103.19 24.1513 103.275 24.2158 103.371 24.2601C103.466 24.3043 103.57 24.3272 103.675 24.3273H107.27C107.559 24.3273 107.838 24.2232 108.057 24.0339C108.276 23.8445 108.42 23.5825 108.463 23.2954L111.99 0.845454C112.007 0.741418 112 0.635077 111.972 0.533696C111.944 0.432314 111.894 0.33828 111.826 0.258016C111.758 0.177752 111.674 0.113149 111.579 0.0686199C111.484 0.0240908 111.381 0.000684624 111.276 0L107.247 0C107.074 0.00112956 106.908 0.0639194 106.777 0.177157C106.646 0.290395 106.56 0.446707 106.533 0.618182Z" fill="#469BDB"/>
</svg>
