<svg width="141" height="30" viewBox="0 0 141 30" fill="none" xmlns="http://www.w3.org/2000/svg">
<path fill-rule="evenodd" clip-rule="evenodd" d="M58.4893 0.877477H53.7161C53.6412 0.878671 53.5699 0.909387 53.5174 0.962995C53.4649 1.0166 53.4355 1.08881 53.4355 1.16402V15.1182C53.4355 15.193 53.4651 15.2648 53.5177 15.3176C53.5703 15.3705 53.6417 15.4002 53.7161 15.4002H55.8244C55.8988 15.4002 55.9702 15.3705 56.0228 15.3176C56.0754 15.2648 56.1049 15.193 56.1049 15.1182V10.1151H58.2359C61.3034 10.1151 63.2896 8.15023 63.2896 5.11196C63.2896 2.43755 61.5387 0.904767 58.4893 0.904767V0.877477ZM56.0868 3.1198H58.1771C59.833 3.1198 60.5388 3.76566 60.5388 5.2757C60.5388 6.99496 59.6882 7.86369 58.0052 7.86369H56.0868V3.1198ZM68.3931 4.31145C65.6333 4.31145 64.0543 6.33545 64.0543 9.85585C64.0543 13.6901 65.6423 15.6368 68.7777 15.6368C69.8993 15.6399 71.0054 15.3732 72.0036 14.859C72.0512 14.8334 72.0903 14.7943 72.116 14.7466C72.1417 14.6989 72.153 14.6447 72.1484 14.5906L72.0126 12.8441C72.0111 12.7966 71.9969 12.7504 71.9714 12.7103C71.9459 12.6703 71.9101 12.638 71.8679 12.6167C71.8261 12.5944 71.7794 12.5827 71.7321 12.5827C71.6848 12.5827 71.6382 12.5944 71.5964 12.6167C70.8055 13.0649 69.9162 13.3087 69.0085 13.3262C67.2801 13.3262 66.796 11.8844 66.7191 10.5608H72.0579C72.1335 10.5608 72.206 10.5306 72.2594 10.4769C72.3129 10.4232 72.3429 10.3503 72.3429 10.2743V9.45105C72.3429 6.03981 71.0218 4.31145 68.4112 4.31145H68.3931ZM68.3524 6.45371C69.2573 6.45371 69.7097 7.19054 69.7821 8.64145H66.7146C66.7825 7.57259 67.2394 6.45371 68.3524 6.45371ZM82.2332 4.50703H80.3601C80.2905 4.50771 80.2235 4.53399 80.1718 4.58092C80.1201 4.62784 80.0873 4.69216 80.0796 4.76174L80.057 4.95731C79.4289 4.53189 78.6878 4.3068 77.9305 4.31145C74.9128 4.31145 73.8586 7.4134 73.8586 10.0696C73.8586 13.5582 75.2747 15.5594 77.7496 15.5594C78.5677 15.5726 79.3657 15.3047 80.0117 14.7999C80.0117 16.6192 79.4643 17.4288 78.1749 17.4288C77.1565 17.3999 76.1607 17.1203 75.2747 16.6146C75.2334 16.5935 75.1876 16.5824 75.1412 16.5824C75.0949 16.5824 75.0491 16.5935 75.0078 16.6146C74.9654 16.633 74.9283 16.6618 74.8998 16.6984C74.8714 16.7349 74.8525 16.7781 74.8449 16.8239L74.5146 18.6432C74.5032 18.7034 74.5116 18.7657 74.5385 18.8207C74.5655 18.8757 74.6095 18.9203 74.6639 18.9479C75.7969 19.4811 77.0325 19.7575 78.2834 19.7575C82.1201 19.7575 82.5635 17.0285 82.5635 14.95V4.79357C82.5635 4.71758 82.5335 4.64469 82.48 4.59096C82.4266 4.53722 82.3541 4.50703 82.2785 4.50703H82.2332ZM78.297 13.3262C76.7768 13.3262 76.5506 11.3295 76.5506 10.1424C76.5506 6.54467 77.9079 6.54468 78.3604 6.54468C78.937 6.58665 79.4861 6.80935 79.9303 7.18144V12.5166C79.5142 12.9935 78.9267 13.2847 78.297 13.3262ZM93.6799 13.2944C93.6432 13.2712 93.6019 13.2564 93.559 13.2509C93.516 13.2454 93.4724 13.2494 93.4311 13.2625C93.2866 13.321 93.1339 13.3563 92.9786 13.3671C92.8565 13.3671 92.6981 13.3671 92.6981 12.7395V8.96438C92.6981 6.01707 92.024 4.31145 88.5764 4.31145C87.5653 4.33394 86.5602 4.47436 85.5813 4.7299C85.5172 4.7487 85.4617 4.7895 85.4245 4.84519C85.3873 4.90087 85.3707 4.96792 85.3777 5.03464L85.5496 6.62654C85.5542 6.66915 85.5684 6.71013 85.5912 6.74639C85.6139 6.78264 85.6445 6.81321 85.6808 6.83577C85.7159 6.85872 85.7556 6.87349 85.7971 6.879C85.8386 6.88451 85.8808 6.88062 85.9206 6.86761C86.6882 6.63324 87.4847 6.50771 88.2868 6.49464C89.6442 6.49464 90.1645 6.98131 90.1645 8.16842V8.35945C89.6972 8.27383 89.2232 8.2312 88.7483 8.2321C86.0111 8.2321 84.509 9.59659 84.509 12.0891C84.4999 14.2359 85.7532 15.6004 87.7575 15.6004C88.7709 15.6032 89.7524 15.2437 90.5264 14.5861C90.8069 15.2911 91.3272 15.6004 92.1959 15.6004C92.719 15.5879 93.2374 15.4975 93.7342 15.332C93.7949 15.3118 93.8471 15.2717 93.8824 15.2181C93.9177 15.1644 93.934 15.1004 93.9287 15.0364L93.793 13.5036C93.7886 13.4608 93.775 13.4196 93.7531 13.3827C93.7312 13.3457 93.7016 13.3141 93.6663 13.2898L93.6799 13.2944ZM90.1509 10.297V12.6212C89.6695 13.1103 89.0245 13.402 88.3411 13.4399C87.2372 13.4399 87.115 12.3938 87.115 11.9435C87.115 10.6882 87.7032 10.1515 89.0741 10.1515C89.4347 10.1547 89.7934 10.2036 90.1418 10.297H90.1509ZM103.412 0.877477H101.367C101.291 0.877477 101.219 0.907666 101.165 0.961404C101.112 1.01514 101.082 1.08802 101.082 1.16402V4.82541C100.5 4.48357 99.8373 4.306 99.1634 4.31145C96.105 4.31145 95.0191 7.4134 95.0191 10.0696C95.0191 13.5309 96.476 15.5958 98.9146 15.5958C99.7669 15.6054 100.595 15.3122 101.254 14.768L101.276 15.1319C101.28 15.2043 101.311 15.2726 101.363 15.3225C101.415 15.3725 101.485 15.4003 101.557 15.4002H103.412C103.487 15.4003 103.558 15.3707 103.612 15.3179C103.665 15.2652 103.696 15.1934 103.697 15.1182V1.16402C103.697 1.08802 103.667 1.01514 103.613 0.961404C103.56 0.907666 103.487 0.877477 103.412 0.877477ZM101.1 7.1496V12.5712C100.892 12.8073 100.64 12.9988 100.357 13.134C100.073 13.2692 99.7661 13.3455 99.453 13.358C98.3491 13.358 97.7111 12.18 97.7111 10.1287C97.7111 7.73178 98.331 6.51284 99.5525 6.51284C100.123 6.55112 100.666 6.77457 101.1 7.1496ZM114.904 13.2853C114.868 13.2622 114.827 13.2474 114.785 13.2419C114.743 13.2364 114.7 13.2404 114.659 13.2534C114.515 13.312 114.362 13.3473 114.207 13.358C114.089 13.358 113.931 13.358 113.931 12.7304V8.96438C113.931 6.01707 113.257 4.31145 109.809 4.31145C108.798 4.33394 107.793 4.47436 106.814 4.7299C106.751 4.74947 106.696 4.79044 106.659 4.84594C106.621 4.90143 106.605 4.96806 106.611 5.03464L106.782 6.62654C106.787 6.66858 106.801 6.70907 106.823 6.7452C106.845 6.78134 106.874 6.81224 106.909 6.83577C106.944 6.85842 106.984 6.87302 107.026 6.87852C107.067 6.88403 107.109 6.8803 107.149 6.86761C107.917 6.63358 108.713 6.50806 109.515 6.49464C110.85 6.49464 111.397 6.98131 111.397 8.16842V8.35945C110.93 8.27383 110.456 8.2312 109.981 8.2321C107.244 8.2321 105.737 9.59659 105.737 12.0891C105.733 14.2359 106.991 15.6004 109.022 15.6004C110.037 15.6039 111.02 15.2444 111.796 14.5861C112.071 15.2911 112.592 15.6004 113.465 15.6004C113.988 15.5879 114.507 15.4975 115.003 15.332C115.064 15.3117 115.115 15.2714 115.15 15.2177C115.184 15.1639 115.2 15.1 115.193 15.0364L115.062 13.5036C115.057 13.4605 115.042 13.4192 115.02 13.3822C114.997 13.3453 114.967 13.3138 114.931 13.2898L114.904 13.2853ZM111.379 10.2879V12.6121C110.898 13.1012 110.253 13.3929 109.57 13.4308C108.47 13.4308 108.352 12.3847 108.352 11.9344C108.352 10.6791 108.936 10.1424 110.307 10.1424C110.668 10.1456 111.026 10.1945 111.375 10.2879H111.379ZM118.071 0.62732C117.871 0.615462 117.671 0.646244 117.483 0.717646C117.296 0.789047 117.126 0.899454 116.984 1.04162C116.842 1.18379 116.732 1.3545 116.66 1.54256C116.589 1.73062 116.558 1.93177 116.569 2.13281C116.558 2.33483 116.589 2.53691 116.66 2.72607C116.732 2.91524 116.842 3.0873 116.983 3.23121C117.125 3.37513 117.295 3.48771 117.482 3.56174C117.669 3.63576 117.87 3.66959 118.071 3.66104C118.273 3.67331 118.475 3.642 118.663 3.56922C118.852 3.49644 119.023 3.38387 119.165 3.2391C119.307 3.09432 119.416 2.92068 119.486 2.72986C119.556 2.53904 119.584 2.33546 119.568 2.13281C119.591 1.92966 119.567 1.72408 119.5 1.53126C119.432 1.33844 119.323 1.16331 119.179 1.01879C119.035 0.874275 118.861 0.764068 118.669 0.696311C118.477 0.628553 118.273 0.604976 118.071 0.62732ZM119.093 4.50703H117.066C116.991 4.50703 116.918 4.53722 116.865 4.59096C116.811 4.64469 116.781 4.71758 116.781 4.79357V15.1137C116.781 15.1897 116.811 15.2626 116.865 15.3163C116.918 15.3701 116.991 15.4002 117.066 15.4002H119.093C119.168 15.399 119.239 15.3683 119.292 15.3147C119.344 15.2611 119.374 15.1889 119.374 15.1137V4.79357C119.374 4.71836 119.344 4.64616 119.292 4.59255C119.239 4.53894 119.168 4.50822 119.093 4.50703ZM130.617 13.2853C130.581 13.2622 130.541 13.2474 130.498 13.2419C130.456 13.2364 130.413 13.2404 130.373 13.2534C130.228 13.312 130.076 13.3473 129.92 13.358C129.803 13.358 129.644 13.358 129.644 12.7304V8.96438C129.644 6.01707 128.97 4.31145 125.518 4.31145C124.507 4.33443 123.502 4.47484 122.523 4.7299C122.459 4.74879 122.404 4.78978 122.368 4.84558C122.331 4.90138 122.316 4.96837 122.324 5.03464L122.496 6.62654C122.499 6.66884 122.513 6.7097 122.535 6.74597C122.557 6.78224 122.587 6.81296 122.622 6.83577C122.657 6.85872 122.697 6.87349 122.739 6.879C122.78 6.88451 122.822 6.88062 122.862 6.86761C123.63 6.63324 124.426 6.50771 125.228 6.49464C126.563 6.49464 127.106 6.98131 127.106 8.16842V8.35945C126.64 8.27362 126.168 8.23099 125.694 8.2321C122.957 8.2321 121.451 9.59659 121.451 12.0891C121.451 14.2541 122.708 15.5958 124.731 15.5958C125.744 15.5987 126.726 15.2392 127.5 14.5815C127.776 15.2865 128.296 15.5958 129.169 15.5958C129.691 15.5837 130.208 15.4933 130.703 15.3275C130.764 15.3073 130.816 15.2671 130.851 15.2135C130.886 15.1599 130.903 15.0959 130.897 15.0318L130.739 13.499C130.734 13.456 130.719 13.4146 130.697 13.3777C130.674 13.3408 130.644 13.3093 130.608 13.2853H130.617ZM127.088 10.2879V12.6121C126.608 13.103 125.962 13.3951 125.278 13.4308C124.179 13.4308 124.057 12.3847 124.057 11.9344C124.057 10.6791 124.645 10.1424 126.016 10.1424C126.375 10.1452 126.732 10.1941 127.079 10.2879H127.088ZM140.896 6.64929C140.634 5.11196 139.58 4.29781 137.856 4.29781C136.803 4.32396 135.786 4.68195 134.947 5.32118L134.915 4.76174C134.912 4.68934 134.881 4.62107 134.828 4.5711C134.776 4.52113 134.707 4.4933 134.635 4.49339H132.739C132.664 4.49458 132.593 4.5253 132.54 4.5789C132.488 4.63251 132.458 4.70472 132.458 4.77993V15.1137C132.458 15.1513 132.465 15.1887 132.478 15.2237C132.492 15.2587 132.513 15.2906 132.539 15.3177C132.565 15.3447 132.596 15.3663 132.63 15.3812C132.664 15.3962 132.701 15.4042 132.739 15.4048H134.788C134.864 15.4036 134.937 15.3724 134.99 15.3179C135.044 15.2635 135.073 15.1901 135.073 15.1137V7.61808C135.643 7.05892 136.388 6.71641 137.182 6.64929C138.032 6.64929 138.254 6.96312 138.331 7.44069C138.362 7.7139 138.375 7.98901 138.367 8.26394V15.1137C138.367 15.1513 138.373 15.1887 138.387 15.2237C138.401 15.2587 138.421 15.2906 138.447 15.3177C138.474 15.3447 138.505 15.3663 138.539 15.3812C138.573 15.3962 138.61 15.4042 138.648 15.4048H140.675C140.751 15.4036 140.823 15.3724 140.876 15.3179C140.93 15.2635 140.96 15.1901 140.96 15.1137V7.99559C140.963 7.54987 140.934 7.10451 140.874 6.66293L140.896 6.64929Z" fill="#00463A"/>
<path fill-rule="evenodd" clip-rule="evenodd" d="M12.9195 10.1427C12.915 8.6543 13.237 7.18319 13.8627 5.83415C14.4883 4.48511 15.4021 3.29133 16.539 2.33783C15.2922 1.29794 13.8147 0.575011 12.2314 0.23013C10.6481 -0.11475 9.00548 -0.0714514 7.44233 0.356369C5.87918 0.784188 4.44143 1.58396 3.25055 2.68811C2.05967 3.79226 1.15065 5.16835 0.600296 6.7001C0.0499434 8.23186 -0.12557 9.87429 0.0885769 11.4886C0.302723 13.1029 0.900238 14.6417 1.83065 15.975C2.76105 17.3082 3.99701 18.3967 5.4341 19.1486C6.87118 19.9004 8.46717 20.2935 10.0872 20.2946C12.4452 20.2978 14.7291 19.467 16.539 17.9476C15.4021 16.9941 14.4883 15.8004 13.8627 14.4513C13.237 13.1023 12.915 11.6312 12.9195 10.1427Z" fill="#B7D442"/>
<path fill-rule="evenodd" clip-rule="evenodd" d="M23.0123 5.53471e-06C20.6545 -0.00247401 18.3708 0.828247 16.5605 2.34694C17.7013 3.29871 18.6195 4.49153 19.2496 5.84051C19.8798 7.1895 20.2065 8.66152 20.2065 10.1518C20.2065 11.6422 19.8798 13.1142 19.2496 14.4632C18.6195 15.8122 17.7013 17.005 16.5605 17.9567C17.8074 18.9993 19.2858 19.7247 20.8705 20.0714C22.4552 20.4182 24.0997 20.3761 25.6649 19.9488C27.23 19.5215 28.6697 18.7215 29.8623 17.6165C31.0548 16.5115 31.9651 15.134 32.516 13.6006C33.067 12.0671 33.2424 10.4228 33.0276 8.80679C32.8127 7.19076 32.2138 5.65052 31.2815 4.31639C30.3493 2.98225 29.1111 1.89347 27.6717 1.14214C26.2323 0.390821 24.6341 -0.000939323 23.0123 5.53471e-06Z" fill="#70BF4F"/>
<path fill-rule="evenodd" clip-rule="evenodd" d="M20.208 10.1428C20.2101 8.65204 19.8842 7.17927 19.2538 5.82994C18.6234 4.48062 17.7039 3.28814 16.5613 2.33789C15.4212 3.29013 14.5038 4.48309 13.8741 5.83201C13.2444 7.18094 12.918 8.65273 12.918 10.1428C12.918 11.6329 13.2444 13.1047 13.8741 14.4536C14.5038 15.8025 15.4212 16.9955 16.5613 17.9477C17.7039 16.9975 18.6234 15.805 19.2538 14.4556C19.8842 13.1063 20.2101 11.6335 20.208 10.1428Z" fill="#17B253"/>
<path fill-rule="evenodd" clip-rule="evenodd" d="M46.1793 10.206C46.1793 12.2139 45.587 14.1766 44.4774 15.8461C43.3677 17.5156 41.7906 18.8167 39.9453 19.5851C38.1001 20.3535 36.0696 20.5545 34.1107 20.1628C32.1518 19.7711 30.3525 18.8042 28.9402 17.3845C27.5279 15.9647 26.5661 14.1558 26.1765 12.1866C25.7868 10.2173 25.9868 8.1761 26.7511 6.32109C27.5154 4.46609 28.8098 2.88059 30.4705 1.76509C32.1311 0.649594 34.0836 0.0541992 36.0808 0.0541992C38.7591 0.0541992 41.3277 1.12376 43.2215 3.0276C45.1153 4.93144 46.1793 7.5136 46.1793 10.206Z" fill="#17B253"/>
<path fill-rule="evenodd" clip-rule="evenodd" d="M35.2324 13.5717L35.1827 13.458L33.6987 10.0286L32.1061 6.30351L31.993 6.03516L31.8753 6.30351L30.2692 10.0286L28.7761 13.4807C28.7265 13.5812 28.7002 13.6916 28.6992 13.8037C28.6992 14.6315 30.147 15.2773 31.993 15.2773C33.8389 15.2773 35.2731 14.6315 35.2731 13.8037C35.2725 13.725 35.2604 13.6468 35.2369 13.5717H35.2324ZM31.9749 13.1851H29.5091L30.7488 10.3288L31.9794 7.46788L33.2145 10.3288L34.4452 13.1851H31.9749Z" fill="white"/>
<path fill-rule="evenodd" clip-rule="evenodd" d="M43.4405 13.5717L43.3862 13.458L41.9067 10.0286L40.2961 6.30351L40.1829 6.03516L40.0653 6.30351L38.4411 10.0286L36.948 13.4807C36.9006 13.5819 36.8744 13.6919 36.8711 13.8037C36.8711 14.6315 38.3189 15.2773 40.1648 15.2773C42.0108 15.2773 43.4586 14.6315 43.4586 13.8037C43.4576 13.725 43.4454 13.6469 43.4224 13.5717H43.4405ZM40.1829 13.1851H37.7217L38.9523 10.3288L40.1829 7.46788L41.4181 10.3288L42.6487 13.1851H40.1829Z" fill="white"/>
<path fill-rule="evenodd" clip-rule="evenodd" d="M41.6075 6.80433C39.908 5.73906 37.9502 5.16324 35.9475 5.13965C35.1497 5.13958 34.3549 5.23888 33.5813 5.43529C32.5063 5.70935 31.4846 6.1629 30.559 6.77704C30.5161 6.82335 30.4922 6.8843 30.4922 6.9476C30.4922 7.01091 30.5161 7.07186 30.559 7.11816L30.6269 7.19549L30.6902 7.27281C30.7294 7.30592 30.7792 7.32369 30.8305 7.32284C30.8573 7.32835 30.885 7.32835 30.9119 7.32284C32.4183 6.32699 34.1808 5.79432 35.9837 5.79006C37.7437 5.8089 39.4684 6.28859 40.9877 7.18184L41.1279 7.26826L41.2184 7.31374C41.2615 7.34298 41.3114 7.36024 41.3632 7.36377C41.3981 7.36369 41.4325 7.35638 41.4645 7.34229C41.4964 7.3282 41.5251 7.30764 41.5487 7.2819L41.6573 7.11362C41.6753 7.09042 41.6883 7.06375 41.6956 7.03526C41.7028 7.00678 41.7042 6.97709 41.6995 6.94806C41.6948 6.91904 41.6842 6.89129 41.6684 6.86656C41.6526 6.84183 41.6319 6.82064 41.6075 6.80433Z" fill="white"/>
<path fill-rule="evenodd" clip-rule="evenodd" d="M53.4263 28.6813C53.5747 28.7157 53.7265 28.7325 53.8787 28.7313C54.0151 28.7322 54.1513 28.7216 54.2859 28.6995L54.3719 27.103C54.399 26.6846 54.4217 26.1297 54.4217 25.7385H54.4624L55.0325 28.1264C55.1914 28.149 55.3516 28.1611 55.5121 28.1628C55.674 28.1615 55.8358 28.1493 55.9961 28.1264L56.5708 25.7385H56.6069C56.6069 26.1252 56.6341 26.68 56.6522 27.103L56.7472 28.6995C56.8803 28.7217 57.015 28.7324 57.1499 28.7313C57.3096 28.7337 57.4691 28.7169 57.6249 28.6813L57.3173 24.7243C57.1093 24.6908 56.899 24.674 56.6884 24.6742C56.4912 24.6734 56.2944 24.6901 56.1002 24.7243L55.7473 26.1615C55.7202 26.3025 55.5844 26.9302 55.5347 27.2258H55.4939C55.4442 26.9302 55.3039 26.3162 55.2768 26.1615L54.9329 24.7243C54.7386 24.6909 54.5419 24.6741 54.3448 24.6742C54.1341 24.6733 53.9238 24.6901 53.7159 24.7243L53.4082 28.6813H53.4263ZM60.5748 27.5579C60.6336 27.3619 60.6596 27.1575 60.6517 26.9529C60.6635 26.7888 60.6404 26.624 60.584 26.4695C60.5275 26.315 60.439 26.1744 60.3243 26.0569C60.2096 25.9395 60.0714 25.8479 59.9188 25.7883C59.7662 25.7287 59.6027 25.7024 59.4392 25.7113C58.5117 25.7113 58.1317 26.398 58.1317 27.285C58.1317 28.0582 58.4076 28.8132 59.4347 28.8132C59.8396 28.818 60.2368 28.7008 60.5748 28.4766C60.5534 28.2767 60.4694 28.0888 60.335 27.9399C60.0956 28.0428 59.8396 28.1014 59.5795 28.1128C59.1949 28.1128 59.0818 27.8763 59.0546 27.5579H60.5748ZM59.4347 26.3617C59.7061 26.3617 59.8193 26.5936 59.8193 26.862V26.9257H59.0501C59.0727 26.5436 59.1768 26.3617 59.4347 26.3617ZM63.7102 26.7892C63.7102 26.1797 63.4252 25.7476 62.8958 25.7476C62.5836 25.7576 62.2872 25.8879 62.0679 26.1115C62.0432 26.0049 61.9812 25.9108 61.8931 25.8464C61.805 25.7821 61.6968 25.7519 61.5883 25.7613H61.2444L61.2037 25.8022V28.7222C61.353 28.7487 61.5045 28.7609 61.6562 28.7586C61.8078 28.7612 61.9593 28.749 62.1086 28.7222V26.7665C62.2235 26.6504 62.376 26.5794 62.5384 26.5663C62.7375 26.5663 62.7918 26.6891 62.7918 26.9529V28.2037C62.7918 28.5721 62.9139 28.7723 63.2804 28.7723C63.4865 28.7748 63.6868 28.7039 63.846 28.5721C63.7409 28.3971 63.6919 28.1939 63.7057 27.99V26.7892H63.7102ZM64.2305 27.244C64.2305 28.1537 64.5653 28.7586 65.2802 28.7586C65.5187 28.7547 65.7499 28.6751 65.9407 28.5312V28.7268C65.9521 28.8071 65.9447 28.8889 65.9191 28.9659C65.8935 29.0428 65.8505 29.1127 65.7935 29.17C65.7365 29.2274 65.6669 29.2706 65.5904 29.2963C65.5139 29.322 65.4325 29.3295 65.3526 29.3181C65.0795 29.3129 64.8102 29.2526 64.5608 29.1407C64.4214 29.3342 64.344 29.5659 64.3391 29.8047C64.6911 29.9285 65.0611 29.9931 65.434 29.9958C65.6367 30.0115 65.8403 29.9812 66.0299 29.9072C66.2194 29.8332 66.3899 29.7174 66.5289 29.5682C66.7099 29.3363 66.8275 28.9906 66.8275 28.1673V26.6209C66.8217 26.5427 66.8333 26.4641 66.8614 26.3909C66.8896 26.3178 66.9337 26.2518 66.9904 26.1979C66.9477 26.02 66.8494 25.8606 66.7099 25.7431C66.6075 25.7434 66.5062 25.7645 66.4121 25.8052C66.3181 25.8458 66.2331 25.9051 66.1624 25.9796C65.9496 25.7936 65.6752 25.6946 65.3933 25.7022C64.7599 25.7022 64.2305 26.2525 64.2305 27.2577V27.244ZM65.9407 26.6118V27.8217C65.8837 27.8853 65.8139 27.9361 65.7359 27.9706C65.6579 28.0051 65.5735 28.0225 65.4883 28.0218C65.2892 28.0218 65.1444 27.7944 65.1444 27.2486C65.1444 26.7028 65.253 26.3708 65.5381 26.3708C65.6869 26.3859 65.8244 26.4574 65.9226 26.5709V26.6118H65.9407ZM69.9855 28.2811C69.9283 28.2366 69.8833 28.1781 69.8548 28.1113C69.8263 28.0444 69.8152 27.9713 69.8227 27.899V26.7301C69.8313 26.5929 69.81 26.4554 69.7604 26.3273C69.7108 26.1992 69.6341 26.0835 69.5354 25.9882C69.4368 25.893 69.3187 25.8205 69.1894 25.7758C69.0601 25.7311 68.9226 25.7153 68.7866 25.7294C68.3303 25.7393 67.879 25.827 67.4519 25.9887C67.4659 26.2175 67.5426 26.4378 67.6736 26.6255C67.9492 26.5257 68.2367 26.463 68.5287 26.439C68.7911 26.439 68.9087 26.5618 68.9087 26.8074V26.9211C68.7549 26.9211 68.6011 26.9211 68.497 26.9211C68.3529 26.9017 68.2064 26.9134 68.0672 26.9554C67.928 26.9975 67.7993 27.0689 67.6897 27.1648C67.58 27.2608 67.4921 27.3792 67.4316 27.5121C67.3711 27.6449 67.3394 27.7893 67.3388 27.9354C67.3322 28.0566 67.3512 28.1778 67.3943 28.2911C67.4375 28.4045 67.5039 28.5074 67.5893 28.5932C67.6747 28.679 67.7771 28.7458 67.8898 28.7892C68.0025 28.8326 68.1231 28.8516 68.2436 28.845C68.4018 28.8459 68.5585 28.815 68.7046 28.7541C68.8507 28.6932 68.9832 28.6035 69.0942 28.4903C69.1678 28.5879 69.2628 28.6671 69.372 28.7216C69.4811 28.776 69.6013 28.8043 69.7231 28.8041C69.858 28.6826 69.9554 28.5248 70.0036 28.3493L69.9855 28.2811ZM68.497 28.1173C68.4604 28.1193 68.4239 28.1135 68.3897 28.1002C68.3556 28.0869 68.3246 28.0665 68.2989 28.0403C68.2732 28.014 68.2534 27.9826 68.2408 27.948C68.2281 27.9135 68.2229 27.8766 68.2255 27.8399C68.219 27.7897 68.2239 27.7387 68.2399 27.6908C68.256 27.6429 68.2827 27.5993 68.318 27.5633C68.3534 27.5273 68.3965 27.4999 68.4439 27.4832C68.4914 27.4665 68.5421 27.4609 68.592 27.4669H68.9087V27.9217C68.7956 28.0256 68.65 28.0867 68.497 28.0946V28.1173ZM72.1663 25.7795H71.4741V24.9562L71.4333 24.9153H71.0759C70.723 24.9153 70.5828 25.0654 70.5828 25.4702V25.8113H70.1303C70.104 25.9139 70.0903 26.0193 70.0896 26.1252C70.0892 26.2386 70.1029 26.3517 70.1303 26.4617H70.5828V27.9581C70.5828 28.513 70.8271 28.7723 71.3564 28.7723C71.6077 28.7665 71.8584 28.7468 72.1075 28.7131C72.1168 28.6452 72.1168 28.5764 72.1075 28.5085C72.1092 28.3538 72.0847 28.2 72.0351 28.0536H71.7048C71.5238 28.0536 71.4514 27.9536 71.4514 27.7762V26.4117H72.1437C72.1674 26.3011 72.1795 26.1883 72.1799 26.0751C72.1785 25.9695 72.1664 25.8644 72.1437 25.7613L72.1663 25.7795ZM75.1207 28.2811C75.0635 28.2366 75.0185 28.1781 74.99 28.1113C74.9615 28.0444 74.9504 27.9713 74.9578 27.899V26.7301C74.9664 26.5929 74.9452 26.4554 74.8956 26.3273C74.846 26.1992 74.7692 26.0835 74.6706 25.9882C74.572 25.893 74.4539 25.8205 74.3246 25.7758C74.1952 25.7311 74.0578 25.7153 73.9218 25.7294C73.4655 25.7393 73.0141 25.827 72.5871 25.9887C72.5989 26.2179 72.6758 26.4389 72.8087 26.6255C73.0844 26.5257 73.3719 26.463 73.6639 26.439C73.9263 26.439 74.0439 26.5618 74.0439 26.8074V26.9211C73.8901 26.9211 73.7317 26.9211 73.6277 26.9211C73.4839 26.9024 73.3379 26.9146 73.1992 26.957C73.0606 26.9993 72.9324 27.0708 72.8233 27.1667C72.7142 27.2627 72.6267 27.3808 72.5664 27.5133C72.5062 27.6458 72.4747 27.7897 72.4739 27.9354C72.4674 28.0566 72.4863 28.1778 72.5295 28.2911C72.5727 28.4045 72.6391 28.5074 72.7245 28.5932C72.8098 28.679 72.9122 28.7458 73.025 28.7892C73.1377 28.8326 73.2583 28.8516 73.3788 28.845C73.537 28.8459 73.6937 28.815 73.8398 28.7541C73.9859 28.6932 74.1183 28.6035 74.2294 28.4903C74.3027 28.5882 74.3977 28.6676 74.5069 28.7221C74.6161 28.7765 74.7364 28.8046 74.8583 28.8041C74.9917 28.6814 75.0887 28.524 75.1388 28.3493L75.1207 28.2811ZM73.6277 28.1173C73.5915 28.1187 73.5554 28.1124 73.5218 28.0988C73.4882 28.0852 73.4578 28.0647 73.4326 28.0385C73.4074 28.0123 73.388 27.9811 73.3756 27.9469C73.3632 27.9126 73.3582 27.8762 73.3607 27.8399C73.3542 27.7897 73.3591 27.7387 73.3751 27.6908C73.3911 27.6429 73.4179 27.5993 73.4532 27.5633C73.4886 27.5273 73.5316 27.4999 73.5791 27.4832C73.6266 27.4665 73.6772 27.4609 73.7272 27.4669H74.0439V27.9217C73.9294 28.0263 73.7822 28.0874 73.6277 28.0946V28.1173ZM75.4057 28.5039C75.7635 28.6912 76.1607 28.7895 76.564 28.7905C77.2788 28.7905 77.7448 28.422 77.7448 27.8353C77.7381 27.6131 77.6579 27.3995 77.517 27.2282C77.3761 27.0569 77.1825 26.9377 76.9667 26.8893L76.6047 26.7619C76.4509 26.7028 76.3875 26.6391 76.3875 26.539C76.3875 26.439 76.469 26.3526 76.6228 26.3526C76.9083 26.3685 77.1872 26.4444 77.4417 26.5754C77.5238 26.4908 77.5882 26.3903 77.6309 26.2802C77.6737 26.17 77.6939 26.0523 77.6906 25.9341C77.3526 25.7825 76.9882 25.699 76.6183 25.6885C75.9306 25.6885 75.4872 26.066 75.4872 26.6573C75.4945 26.8641 75.57 27.0627 75.7019 27.2216C75.8338 27.3805 76.0145 27.4908 76.2156 27.5351L76.5368 27.6579C76.7314 27.7216 76.8038 27.8126 76.8038 27.9217C76.8038 28.0309 76.6861 28.1264 76.469 28.1264C76.1829 28.1052 75.905 28.0213 75.6546 27.8808C75.5088 28.0572 75.4218 28.2752 75.4057 28.5039ZM78.2109 24.938C78.2114 25.0551 78.2345 25.1709 78.2787 25.2792C78.4135 25.3406 78.5606 25.3702 78.7085 25.3656C78.8638 25.3707 79.0183 25.3411 79.161 25.2792C79.2057 25.1718 79.2287 25.0567 79.2287 24.9403C79.2287 24.824 79.2057 24.7088 79.161 24.6015C79.0199 24.5339 78.8648 24.5011 78.7085 24.506C78.56 24.5054 78.4132 24.5381 78.2787 24.6015C78.2342 24.708 78.2111 24.8224 78.2109 24.938ZM79.3012 26.4435C79.3103 26.355 79.3005 26.2655 79.2722 26.1811C79.244 26.0966 79.1982 26.0193 79.1377 25.9542C79.0773 25.8891 79.0036 25.8378 78.9218 25.8038C78.84 25.7697 78.7518 25.7537 78.6633 25.7567H78.5366C78.4054 25.7567 78.2018 25.7567 78.0208 25.784C77.9972 25.8915 77.9865 26.0015 77.9892 26.1115C77.9855 26.2156 77.9962 26.3197 78.0208 26.4208H78.1113C78.3149 26.4208 78.3828 26.5709 78.3828 26.7619V28.6995C78.6826 28.7466 78.9879 28.7466 79.2877 28.6995V26.4253L79.3012 26.4435ZM81.2377 28.6586C81.3935 28.6941 81.553 28.7109 81.7127 28.7086C81.8491 28.7095 81.9853 28.6988 82.1199 28.6768L82.2059 27.0803C82.2059 26.6619 82.2556 26.107 82.2556 25.7158H82.2964L82.8664 28.1037C83.0239 28.1261 83.1825 28.1382 83.3415 28.1401C83.5035 28.1389 83.6652 28.1268 83.8256 28.1037L84.4047 25.7158H84.4409C84.4409 26.1024 84.4681 26.6573 84.4862 27.0803L84.5767 28.6768C84.7097 28.6988 84.8444 28.7095 84.9793 28.7086C85.1406 28.7109 85.3016 28.6941 85.4589 28.6586L85.1513 24.7015C84.9433 24.668 84.733 24.6513 84.5224 24.6515C84.3237 24.6508 84.1254 24.6676 83.9297 24.7015L83.5813 26.1388C83.5541 26.2798 83.4184 26.9075 83.3686 27.2031H83.3279C83.2782 26.9075 83.1379 26.2934 83.1108 26.1388L82.7805 24.7243C82.5862 24.6909 82.3894 24.6741 82.1923 24.6742C81.9817 24.6733 81.7713 24.6901 81.5634 24.7243L81.2512 28.6813L81.2377 28.6586ZM88.5943 28.2811C88.5371 28.2366 88.4921 28.1781 88.4636 28.1113C88.4351 28.0444 88.424 27.9713 88.4314 27.899V26.7301C88.44 26.5929 88.4188 26.4554 88.3692 26.3273C88.3196 26.1992 88.2428 26.0835 88.1442 25.9882C88.0456 25.893 87.9275 25.8205 87.7982 25.7758C87.6688 25.7311 87.5314 25.7153 87.3954 25.7294C86.9391 25.7393 86.4877 25.827 86.0607 25.9887C86.0725 26.2179 86.1494 26.4389 86.2823 26.6255C86.558 26.5257 86.8455 26.463 87.1375 26.439C87.3999 26.439 87.5175 26.5618 87.5175 26.8074V26.9211C87.3637 26.9211 87.2053 26.9211 87.1013 26.9211C86.9586 26.9025 86.8138 26.9144 86.676 26.956C86.5383 26.9975 86.4108 27.0678 86.302 27.1622C86.1931 27.2566 86.1052 27.3731 86.0442 27.504C85.9831 27.6348 85.9502 27.7772 85.9475 27.9217C85.941 28.0429 85.9599 28.1641 86.0031 28.2775C86.0463 28.3908 86.1127 28.4937 86.1981 28.5796C86.2834 28.6654 86.3858 28.7321 86.4986 28.7755C86.6113 28.8189 86.7319 28.838 86.8524 28.8314C87.0106 28.8323 87.1673 28.8014 87.3134 28.7404C87.4595 28.6795 87.5919 28.5898 87.703 28.4766C87.7758 28.5751 87.8707 28.6549 87.98 28.7094C88.0893 28.7639 88.2099 28.7917 88.3319 28.7905C88.4653 28.6677 88.5624 28.5103 88.6124 28.3356L88.5943 28.2811ZM87.1013 28.1173C87.0382 28.1153 86.978 28.0902 86.9322 28.0466C86.8863 28.003 86.8579 27.944 86.8524 27.8808C86.8459 27.8307 86.8508 27.7797 86.8668 27.7317C86.8829 27.6838 86.9096 27.6402 86.9449 27.6042C86.9803 27.5682 87.0233 27.5408 87.0708 27.5241C87.1183 27.5074 87.1689 27.5019 87.2189 27.5078H87.5356V27.9627C87.4211 28.0672 87.2739 28.1283 87.1194 28.1355L87.1013 28.1173ZM88.8793 28.5039C89.2371 28.6912 89.6343 28.7895 90.0376 28.7905C90.7524 28.7905 91.2184 28.422 91.2184 27.8353C91.2117 27.6131 91.1315 27.3995 90.9906 27.2282C90.8497 27.0569 90.6561 26.9377 90.4403 26.8893L90.0783 26.7619C89.9245 26.7028 89.8566 26.6391 89.8566 26.539C89.8566 26.439 89.9381 26.3526 90.0964 26.3526C90.3818 26.369 90.6607 26.4449 90.9153 26.5754C90.9974 26.4908 91.0618 26.3903 91.1045 26.2802C91.1473 26.17 91.1675 26.0523 91.1642 25.9341C90.8262 25.7825 90.4618 25.699 90.0919 25.6885C89.4042 25.6885 88.9608 26.066 88.9608 26.6573C88.9681 26.8641 89.0436 27.0627 89.1755 27.2216C89.3074 27.3805 89.4881 27.4908 89.6892 27.5351L90.0104 27.6579C90.2005 27.7216 90.2774 27.8126 90.2774 27.9217C90.2774 28.0309 90.1597 28.1264 89.9381 28.1264C89.6536 28.1045 89.3772 28.0207 89.1282 27.8808C88.9824 28.0572 88.8954 28.2752 88.8793 28.5039ZM94.1638 28.2811C94.1084 28.235 94.0647 28.1763 94.0364 28.1098C94.0081 28.0434 93.9959 27.9711 94.0009 27.899V26.7301C94.0096 26.5929 93.9883 26.4554 93.9387 26.3273C93.8891 26.1992 93.8123 26.0835 93.7137 25.9882C93.6151 25.893 93.497 25.8205 93.3677 25.7758C93.2383 25.7311 93.1009 25.7153 92.9649 25.7294C92.5086 25.7393 92.0573 25.827 91.6302 25.9887C91.6442 26.2175 91.7209 26.4378 91.8519 26.6255C92.1275 26.5257 92.415 26.463 92.707 26.439C92.9694 26.439 93.087 26.5618 93.087 26.8074V26.9211C92.9377 26.9211 92.7794 26.9211 92.6753 26.9211C92.5316 26.9024 92.3855 26.9146 92.2469 26.957C92.1082 26.9993 91.9801 27.0708 91.871 27.1667C91.7619 27.2627 91.6743 27.3808 91.6141 27.5133C91.5538 27.6458 91.5223 27.7897 91.5216 27.9354C91.5146 28.0547 91.5324 28.1743 91.574 28.2863C91.6156 28.3983 91.6799 28.5004 91.763 28.586C91.846 28.6716 91.9459 28.7389 92.0562 28.7835C92.1666 28.8281 92.285 28.849 92.4038 28.845C92.562 28.8459 92.7187 28.815 92.8648 28.7541C93.0109 28.6932 93.1433 28.6035 93.2544 28.4903C93.3286 28.5883 93.4245 28.6677 93.5344 28.7221C93.6443 28.7766 93.7653 28.8046 93.8878 28.8041C94.0199 28.6811 94.1155 28.5236 94.1638 28.3493V28.2811ZM92.6753 28.1173C92.6389 28.1186 92.6027 28.1123 92.5688 28.0988C92.535 28.0852 92.5043 28.0648 92.4788 28.0387C92.4533 28.0126 92.4334 27.9814 92.4205 27.9472C92.4076 27.913 92.4019 27.8764 92.4038 27.8399C92.3973 27.7897 92.4022 27.7387 92.4182 27.6908C92.4343 27.6429 92.461 27.5993 92.4963 27.5633C92.5317 27.5273 92.5747 27.4999 92.6222 27.4832C92.6697 27.4665 92.7204 27.4609 92.7703 27.4669H93.087V27.9217C92.9739 28.0256 92.8283 28.0867 92.6753 28.0946V28.1173ZM95.8197 28.0354C95.6342 28.0354 95.5619 27.9354 95.5619 27.758V24.938C95.5619 24.5287 95.4306 24.3877 95.0687 24.3877H94.7113L94.6796 24.4286V27.9172C94.6796 28.4721 94.8742 28.7313 95.399 28.7313C95.6098 28.7275 95.82 28.7078 96.0279 28.6722C96.0372 28.6043 96.0372 28.5354 96.0279 28.4675C96.031 28.3132 96.0081 28.1594 95.96 28.0127L95.8197 28.0354ZM98.9868 28.2811C98.9296 28.2366 98.8846 28.1781 98.8561 28.1113C98.8276 28.0444 98.8165 27.9713 98.8239 27.899V26.7301C98.8325 26.5929 98.8113 26.4554 98.7617 26.3273C98.7121 26.1992 98.6353 26.0835 98.5367 25.9882C98.4381 25.893 98.32 25.8205 98.1907 25.7758C98.0613 25.7311 97.9239 25.7153 97.7879 25.7294C97.3316 25.7393 96.8802 25.827 96.4532 25.9887C96.4672 26.2175 96.5439 26.4378 96.6748 26.6255C96.9505 26.5257 97.238 26.463 97.53 26.439C97.7924 26.439 97.91 26.5618 97.91 26.8074V26.9211C97.7562 26.9211 97.6023 26.9211 97.4938 26.9211C97.3522 26.9046 97.2088 26.918 97.0727 26.9605C96.9366 27.003 96.8108 27.0736 96.7035 27.1678C96.5961 27.262 96.5095 27.3778 96.4493 27.5076C96.389 27.6374 96.3565 27.7785 96.3536 27.9217C96.3471 28.0429 96.366 28.1641 96.4092 28.2775C96.4523 28.3908 96.5188 28.4937 96.6041 28.5796C96.6895 28.6654 96.7919 28.7321 96.9046 28.7755C97.0174 28.8189 97.1379 28.838 97.2585 28.8314C97.4166 28.8323 97.5734 28.8014 97.7195 28.7404C97.8655 28.6795 97.998 28.5898 98.1091 28.4766C98.1826 28.5743 98.2777 28.6535 98.3868 28.7079C98.4959 28.7624 98.6161 28.7906 98.738 28.7905C98.8713 28.6677 98.9684 28.5103 99.0185 28.3356L98.9868 28.2811ZM97.4938 28.1173C97.4576 28.1187 97.4215 28.1124 97.3879 28.0988C97.3543 28.0852 97.3239 28.0647 97.2987 28.0385C97.2735 28.0123 97.2541 27.9811 97.2417 27.9469C97.2293 27.9126 97.2243 27.8762 97.2268 27.8399C97.2203 27.7897 97.2252 27.7387 97.2412 27.6908C97.2573 27.6429 97.284 27.5993 97.3193 27.5633C97.3547 27.5273 97.3977 27.4999 97.4452 27.4832C97.4927 27.4665 97.5433 27.4609 97.5933 27.4669H97.91V27.9217C97.7955 28.0263 97.6483 28.0874 97.4938 28.0946V28.1173ZM101.991 26.7528C101.991 26.1433 101.701 25.7113 101.172 25.7113C100.883 25.7224 100.607 25.8369 100.394 26.0342V24.9608C100.394 24.5514 100.258 24.4104 99.8962 24.4104H99.5207L99.48 24.4514V28.7222C99.6292 28.7496 99.7808 28.7618 99.9324 28.7586C100.084 28.7614 100.236 28.7492 100.385 28.7222V26.7665C100.504 26.6438 100.666 26.5721 100.837 26.5663C101.032 26.5663 101.082 26.6891 101.082 26.9529V28.2037C101.082 28.5721 101.204 28.7723 101.57 28.7723C101.779 28.7742 101.982 28.7035 102.145 28.5721C102.034 28.3993 101.984 28.1947 102 27.99V26.7892L101.991 26.7528ZM104.629 28.6859C104.778 28.7118 104.93 28.7239 105.081 28.7222C105.233 28.7238 105.384 28.7116 105.534 28.6859V25.9296C105.534 25.7704 105.534 25.6612 105.534 25.4747H106.077C106.411 25.4747 106.565 25.361 106.565 25.0517C106.566 24.9317 106.549 24.8121 106.515 24.697H103.633C103.607 24.8257 103.595 24.9568 103.597 25.0881C103.595 25.2179 103.607 25.3476 103.633 25.4747H104.606V28.6995L104.629 28.6859ZM108.986 28.2674C108.937 28.4418 108.842 28.5992 108.71 28.7222C108.588 28.7235 108.467 28.6957 108.358 28.6412C108.249 28.5866 108.154 28.5069 108.081 28.4084C107.969 28.5213 107.835 28.6108 107.689 28.6717C107.542 28.7326 107.384 28.7637 107.226 28.7632C107.107 28.7672 106.988 28.7462 106.878 28.7016C106.768 28.657 106.668 28.5897 106.585 28.5041C106.502 28.4185 106.437 28.3164 106.396 28.2044C106.354 28.0924 106.336 27.9729 106.343 27.8535C106.344 27.7078 106.376 27.5639 106.436 27.4314C106.496 27.2989 106.584 27.1808 106.693 27.0849C106.802 26.989 106.93 26.9175 107.069 26.8751C107.207 26.8328 107.353 26.8205 107.497 26.8392C107.601 26.8392 107.76 26.8392 107.909 26.8392V26.7255C107.909 26.4799 107.791 26.3571 107.529 26.3571C107.237 26.3811 106.949 26.4438 106.674 26.5436C106.543 26.356 106.466 26.1356 106.452 25.9068C106.879 25.7451 107.33 25.6574 107.787 25.6476C107.923 25.6334 108.06 25.6492 108.19 25.6939C108.319 25.7386 108.437 25.8111 108.536 25.9064C108.634 26.0016 108.711 26.1173 108.761 26.2454C108.81 26.3736 108.831 26.511 108.823 26.6482V27.8399C108.818 27.912 108.83 27.9843 108.858 28.0507C108.887 28.1171 108.93 28.1758 108.986 28.2219V28.2674ZM107.497 28.1037C107.65 28.0966 107.796 28.0354 107.909 27.9308V27.476H107.597C107.542 27.4652 107.486 27.4684 107.433 27.4853C107.38 27.5021 107.332 27.5321 107.294 27.5725C107.256 27.6128 107.228 27.6622 107.214 27.7161C107.2 27.77 107.199 27.8266 107.212 27.8808C107.21 27.9174 107.216 27.9539 107.229 27.9881C107.242 28.0224 107.262 28.0535 107.287 28.0796C107.313 28.1057 107.343 28.1262 107.377 28.1397C107.411 28.1532 107.447 28.1596 107.484 28.1582L107.497 28.1037ZM112.022 26.7392C112.022 26.1297 111.737 25.6976 111.207 25.6976C110.895 25.7076 110.599 25.8379 110.379 26.0615C110.355 25.9549 110.292 25.8607 110.204 25.7964C110.116 25.7321 110.008 25.7018 109.9 25.7113H109.556L109.515 25.7522V28.6722C109.664 28.6987 109.816 28.7109 109.967 28.7086C110.119 28.7112 110.271 28.699 110.42 28.6722V26.7164C110.535 26.6003 110.687 26.5294 110.85 26.5163C111.049 26.5163 111.103 26.6391 111.103 26.9029V28.1537C111.103 28.5221 111.225 28.7222 111.592 28.7222C111.798 28.7247 111.998 28.6538 112.157 28.5221C112.052 28.3471 112.003 28.1439 112.017 27.9399V26.7892L112.022 26.7392ZM115.302 27.194C115.302 26.2843 114.962 25.6794 114.252 25.6794C114.107 25.6816 113.965 25.7124 113.832 25.7702C113.699 25.828 113.579 25.9115 113.478 26.016C113.43 25.927 113.357 25.8532 113.269 25.8026C113.182 25.7521 113.082 25.7268 112.981 25.7294H112.745L112.705 25.7704V29.9184L112.745 29.9594H113.094C113.456 29.9594 113.596 29.8184 113.596 29.409V28.6586C113.763 28.7391 113.945 28.7811 114.13 28.7814C114.772 28.7814 115.302 28.231 115.302 27.2258V27.194ZM113.999 26.4435C114.202 26.4435 114.347 26.68 114.347 27.2167C114.347 27.7534 114.229 28.1264 113.949 28.1264C113.814 28.1145 113.685 28.0675 113.573 27.99V26.68C113.621 26.6101 113.684 26.5523 113.758 26.5113C113.832 26.4702 113.914 26.447 113.999 26.4435ZM118.288 28.3038C118.231 28.2593 118.186 28.2009 118.157 28.134C118.129 28.0671 118.118 27.9941 118.125 27.9217V26.7301C118.133 26.5926 118.111 26.4551 118.061 26.327C118.011 26.1989 117.933 26.0833 117.835 25.9881C117.736 25.893 117.617 25.8206 117.488 25.7759C117.358 25.7312 117.221 25.7154 117.084 25.7294C116.628 25.7401 116.177 25.8277 115.75 25.9887C115.766 26.217 115.842 26.4369 115.971 26.6255C116.248 26.5252 116.537 26.4625 116.831 26.439C117.093 26.439 117.206 26.5618 117.206 26.8074V26.9211C117.057 26.9211 116.899 26.9211 116.795 26.9211C116.651 26.9024 116.505 26.9146 116.366 26.957C116.228 26.9993 116.1 27.0708 115.99 27.1667C115.881 27.2627 115.794 27.3808 115.734 27.5133C115.673 27.6458 115.642 27.7897 115.641 27.9354C115.635 28.0566 115.653 28.1778 115.697 28.2911C115.74 28.4045 115.806 28.5074 115.892 28.5932C115.977 28.679 116.079 28.7458 116.192 28.7892C116.305 28.8326 116.425 28.8516 116.546 28.845C116.704 28.8457 116.861 28.8146 117.007 28.7537C117.153 28.6928 117.285 28.6033 117.397 28.4903C117.469 28.5887 117.564 28.6685 117.674 28.723C117.783 28.7776 117.903 28.8054 118.025 28.8041C118.159 28.6814 118.256 28.524 118.306 28.3493L118.288 28.3038ZM116.795 28.1401C116.759 28.1414 116.722 28.1351 116.689 28.1215C116.655 28.1079 116.625 28.0874 116.6 28.0612C116.575 28.035 116.555 28.0038 116.543 27.9696C116.53 27.9354 116.525 27.8989 116.528 27.8626C116.521 27.8125 116.526 27.7615 116.542 27.7135C116.558 27.6656 116.585 27.622 116.62 27.586C116.656 27.55 116.699 27.5227 116.746 27.506C116.794 27.4892 116.844 27.4837 116.894 27.4896H117.206V27.9445C117.094 28.0497 116.948 28.111 116.795 28.1173V28.1401ZM120.057 28.6813C120.213 28.7169 120.372 28.7337 120.532 28.7313C120.668 28.732 120.804 28.7214 120.939 28.6995L121.025 27.103C121.025 26.6846 121.07 26.1297 121.07 25.7385H121.111L121.69 28.131C121.848 28.1537 122.006 28.1659 122.165 28.1673C122.327 28.166 122.489 28.1539 122.649 28.131L123.228 25.7431H123.26C123.26 26.1297 123.292 26.6846 123.31 27.1076L123.4 28.704C123.533 28.7261 123.668 28.7368 123.803 28.7359C123.964 28.7382 124.125 28.7214 124.283 28.6859L123.975 24.7288C123.765 24.6951 123.554 24.6784 123.342 24.6788C123.144 24.6783 122.948 24.695 122.753 24.7288L122.405 26.1661C122.378 26.3071 122.242 26.9348 122.188 27.2304H122.143C122.097 26.9348 121.957 26.3207 121.93 26.1661L121.586 24.7288C121.392 24.6954 121.195 24.6787 120.998 24.6788C120.786 24.6781 120.574 24.6948 120.365 24.7288L120.057 28.6859V28.6813ZM127.413 28.3038C127.356 28.2593 127.311 28.2009 127.283 28.134C127.254 28.0671 127.243 27.9941 127.251 27.9217V26.7301C127.259 26.5926 127.237 26.4551 127.187 26.327C127.136 26.1989 127.059 26.0833 126.96 25.9881C126.861 25.893 126.743 25.8206 126.613 25.7759C126.484 25.7312 126.346 25.7154 126.21 25.7294C125.754 25.7401 125.303 25.8277 124.875 25.9887C124.891 26.217 124.968 26.4369 125.097 26.6255C125.374 26.5252 125.663 26.4625 125.957 26.439C126.219 26.439 126.332 26.5618 126.332 26.8074V26.9211C126.183 26.9211 126.024 26.9211 125.92 26.9211C125.777 26.9024 125.631 26.9146 125.492 26.957C125.353 26.9993 125.225 27.0708 125.116 27.1667C125.007 27.2627 124.919 27.3808 124.859 27.5133C124.799 27.6458 124.767 27.7897 124.767 27.9354C124.76 28.0566 124.779 28.1778 124.822 28.2911C124.865 28.4045 124.932 28.5074 125.017 28.5932C125.103 28.679 125.205 28.7458 125.318 28.7892C125.43 28.8326 125.551 28.8516 125.672 28.845C125.83 28.8457 125.986 28.8146 126.132 28.7537C126.278 28.6928 126.411 28.6033 126.522 28.4903C126.593 28.582 126.684 28.6565 126.787 28.7085C126.89 28.7604 127.004 28.7884 127.119 28.7905C127.253 28.6677 127.35 28.5103 127.4 28.3356L127.413 28.3038ZM125.92 28.1401C125.884 28.1414 125.848 28.1351 125.815 28.1215C125.781 28.1079 125.751 28.0874 125.725 28.0612C125.7 28.035 125.681 28.0038 125.668 27.9696C125.656 27.9354 125.651 27.8989 125.654 27.8626C125.647 27.8125 125.652 27.7615 125.668 27.7135C125.684 27.6656 125.711 27.622 125.746 27.586C125.781 27.55 125.824 27.5227 125.872 27.506C125.919 27.4892 125.97 27.4837 126.02 27.4896H126.332V27.9445C126.22 28.0497 126.074 28.111 125.92 28.1173V28.1401ZM127.699 28.5267C128.056 28.714 128.453 28.8122 128.857 28.8132C129.567 28.8132 130.033 28.4448 130.033 27.8581C130.027 27.6363 129.948 27.4228 129.808 27.2514C129.668 27.08 129.475 26.9606 129.259 26.912L128.897 26.7847C128.739 26.7255 128.676 26.6619 128.676 26.5618C128.676 26.4617 128.757 26.3753 128.916 26.3753C129.2 26.3912 129.477 26.4671 129.73 26.5982C129.813 26.5139 129.878 26.4136 129.922 26.3035C129.965 26.1933 129.986 26.0754 129.983 25.9569C129.645 25.8052 129.281 25.7218 128.911 25.7113C128.223 25.7113 127.78 26.0888 127.78 26.68C127.787 26.8869 127.863 27.0854 127.995 27.2443C128.127 27.4033 128.307 27.5136 128.508 27.5579L128.83 27.6807C129.02 27.7444 129.097 27.8353 129.097 27.9445C129.097 28.0536 128.979 28.1492 128.757 28.1492C128.473 28.1273 128.196 28.0435 127.947 27.9035C127.802 28.08 127.715 28.2979 127.699 28.5267ZM133.001 28.3038C132.944 28.2593 132.899 28.2009 132.87 28.134C132.842 28.0671 132.831 27.9941 132.838 27.9217V26.7301C132.847 26.5929 132.826 26.4554 132.776 26.3273C132.726 26.1992 132.65 26.0835 132.551 25.9882C132.452 25.893 132.334 25.8205 132.205 25.7758C132.076 25.7311 131.938 25.7153 131.802 25.7294C131.346 25.7393 130.895 25.827 130.467 25.9887C130.479 26.2179 130.556 26.4389 130.689 26.6255C130.965 26.5257 131.252 26.463 131.544 26.439C131.807 26.439 131.924 26.5618 131.924 26.8074V26.9211C131.77 26.9211 131.617 26.9211 131.508 26.9211C131.364 26.9024 131.218 26.9146 131.08 26.957C130.941 26.9993 130.813 27.0708 130.704 27.1667C130.595 27.2627 130.507 27.3808 130.447 27.5133C130.387 27.6458 130.355 27.7897 130.354 27.9354C130.348 28.0566 130.367 28.1778 130.41 28.2911C130.453 28.4045 130.519 28.5074 130.605 28.5932C130.69 28.679 130.793 28.7458 130.905 28.7892C131.018 28.8326 131.139 28.8516 131.259 28.845C131.417 28.8459 131.574 28.815 131.72 28.7541C131.866 28.6932 131.999 28.6035 132.11 28.4903C132.183 28.5882 132.278 28.6676 132.387 28.7221C132.496 28.7765 132.617 28.8046 132.739 28.8041C132.872 28.6814 132.969 28.524 133.019 28.3493L133.001 28.3038ZM131.508 28.1401C131.472 28.1414 131.436 28.1351 131.402 28.1215C131.369 28.1079 131.338 28.0874 131.313 28.0612C131.288 28.035 131.268 28.0038 131.256 27.9696C131.244 27.9354 131.239 27.8989 131.241 27.8626C131.235 27.8125 131.239 27.7615 131.256 27.7135C131.272 27.6656 131.298 27.622 131.334 27.586C131.369 27.55 131.412 27.5227 131.459 27.506C131.507 27.4892 131.558 27.4837 131.608 27.4896H131.924V27.9445C131.81 28.049 131.663 28.1101 131.508 28.1173V28.1401ZM134.675 28.0582C134.49 28.0582 134.417 27.9581 134.417 27.7807V24.9608C134.417 24.5514 134.286 24.4104 133.924 24.4104H133.567L133.53 24.4514V27.9399C133.53 28.4948 133.73 28.7541 134.254 28.7541C134.465 28.7503 134.675 28.7305 134.883 28.6949C134.893 28.627 134.893 28.5582 134.883 28.4903C134.886 28.3359 134.863 28.1821 134.815 28.0354L134.675 28.0582ZM137.842 28.3038C137.785 28.2593 137.74 28.2009 137.711 28.134C137.683 28.0671 137.672 27.9941 137.679 27.9217V26.7301C137.688 26.5929 137.667 26.4554 137.617 26.3273C137.567 26.1992 137.491 26.0835 137.392 25.9882C137.293 25.893 137.175 25.8205 137.046 25.7758C136.917 25.7311 136.779 25.7153 136.643 25.7294C136.187 25.7393 135.736 25.827 135.309 25.9887C135.32 26.2179 135.397 26.4389 135.53 26.6255C135.806 26.5257 136.093 26.463 136.385 26.439C136.648 26.439 136.765 26.5618 136.765 26.8074V26.9211C136.612 26.9211 136.453 26.9211 136.349 26.9211C136.205 26.9024 136.059 26.9146 135.921 26.957C135.782 26.9993 135.654 27.0708 135.545 27.1667C135.436 27.2627 135.348 27.3808 135.288 27.5133C135.228 27.6458 135.196 27.7897 135.195 27.9354C135.189 28.0566 135.208 28.1778 135.251 28.2911C135.294 28.4045 135.361 28.5074 135.446 28.5932C135.531 28.679 135.634 28.7458 135.746 28.7892C135.859 28.8326 135.98 28.8516 136.1 28.845C136.258 28.8459 136.415 28.815 136.561 28.7541C136.707 28.6932 136.84 28.6035 136.951 28.4903C137.019 28.5791 137.106 28.6519 137.205 28.7037C137.305 28.7555 137.414 28.7851 137.525 28.7905C137.659 28.6677 137.756 28.5103 137.806 28.3356L137.842 28.3038ZM136.349 28.1401C136.313 28.1414 136.277 28.1351 136.243 28.1215C136.21 28.1079 136.179 28.0874 136.154 28.0612C136.129 28.035 136.109 28.0038 136.097 27.9696C136.085 27.9354 136.08 27.8989 136.082 27.8626C136.076 27.8125 136.081 27.7615 136.097 27.7135C136.113 27.6656 136.139 27.622 136.175 27.586C136.21 27.55 136.253 27.5227 136.301 27.506C136.348 27.4892 136.399 27.4837 136.449 27.4896H136.765V27.9445C136.651 28.049 136.504 28.1101 136.349 28.1173V28.1401ZM140.842 26.7756C140.842 26.1661 140.557 25.734 140.027 25.734C139.737 25.7453 139.459 25.8597 139.245 26.0569V24.9608C139.245 24.5514 139.114 24.4104 138.752 24.4104H138.403L138.362 24.4514V28.7222C138.655 28.7706 138.953 28.7706 139.245 28.7222V26.7665C139.365 26.6453 139.527 26.5739 139.697 26.5663C139.887 26.5663 139.941 26.6891 139.941 26.9529V28.2037C139.941 28.5721 140.064 28.7723 140.43 28.7723C140.638 28.7754 140.84 28.7045 141 28.5721C140.892 28.3985 140.841 28.1946 140.855 27.99L140.842 26.7756Z" fill="#6FBF5B"/>
</svg>
