<svg width="45" height="30" viewBox="0 0 45 30" fill="none" xmlns="http://www.w3.org/2000/svg">
<path fill-rule="evenodd" clip-rule="evenodd" d="M15.6689 12.5206H14.8906C14.9986 14.3813 15.5445 16.1891 16.4831 17.7941C16.4919 17.8132 16.5025 17.8314 16.5146 17.8486C16.969 18.6239 17.5109 19.3434 18.1296 19.9925L18.7235 19.4838C18.2877 19.0314 17.8933 18.5404 17.5448 18.0166H20.5544C20.8288 17.8077 21.1032 17.6033 21.3822 17.4034L21.8995 17.031C21.2814 15.5925 20.9219 14.0545 20.8378 12.4888H20.0596C20.1441 14.1212 20.511 15.7261 21.1437 17.2308H17.0545C16.2458 15.7867 15.772 14.1762 15.6689 12.5206Z" fill="#F08519"/>
<path fill-rule="evenodd" clip-rule="evenodd" d="M26.1504 12.4751V14.2602L26.9287 13.806V12.4751H26.1504Z" fill="#F08519"/>
<path fill-rule="evenodd" clip-rule="evenodd" d="M18.8615 4.01756C20.5699 2.29546 22.7962 1.1947 25.1911 0.887985C23.694 2.11348 22.468 3.64226 21.5922 5.37568L21.5247 5.5074H22.402C23.3144 3.7894 24.5946 2.29825 26.1493 1.14235V5.49831H26.9276V1.14235C28.4768 2.29428 29.7536 3.77891 30.666 5.48923H31.5657C31.5657 5.45289 31.5297 5.41655 31.5072 5.38022C30.6243 3.63983 29.389 2.10624 27.8813 0.878901C29.3943 1.06143 30.8524 1.56342 32.1607 2.35224C33.469 3.14107 34.5982 4.19906 35.475 5.45743H35.538C35.839 5.45666 36.1397 5.47791 36.4377 5.52103C35.3973 3.83629 33.9498 2.4463 32.2311 1.48171C30.5124 0.517107 28.579 0.00957167 26.6127 0.00679901C26.5666 -0.00226634 26.5193 -0.00226634 26.4732 0.00679901C24.5152 0.0299439 22.5938 0.546429 20.8836 1.50938C19.1733 2.47233 17.7283 3.85126 16.6797 5.52103H17.6154C17.9884 4.98554 18.4052 4.48262 18.8615 4.01756Z" fill="#F08519"/>
<path fill-rule="evenodd" clip-rule="evenodd" d="M36.8882 15.1548C36.6605 15.8764 36.359 16.5721 35.9885 17.2306H31.9397C32.0207 17.0398 32.0971 16.8445 32.1691 16.6492L31.1974 16.9898L31.094 17.2306H30.5406C29.8388 17.4849 29.1385 17.7469 28.4398 18.0164H30.6891C30.6351 18.1254 30.5766 18.2299 30.5181 18.3343C29.6199 19.9398 28.393 21.3334 26.9192 22.4223V18.6296L26.1409 18.943V22.4632C25.185 21.7598 24.331 20.925 23.6037 19.9832L22.8614 20.292C23.5372 21.1936 24.3198 22.0082 25.1917 22.7176C23.6275 22.5306 22.1228 22.0004 20.7831 21.1641L19.9238 21.5366C21.8443 22.863 24.1156 23.5752 26.4424 23.5806C26.4944 23.5899 26.5477 23.5899 26.5998 23.5806C28.5715 23.559 30.5062 23.0368 32.2255 22.062C33.9449 21.0873 35.3936 19.6913 36.4383 18.0028C36.5395 17.8576 36.6312 17.7058 36.7128 17.5485C37.1764 16.718 37.5375 15.8333 37.7879 14.9141L36.8882 15.1548ZM34.189 19.5653C32.4926 21.2903 30.2778 22.3989 27.8909 22.7176C29.2412 21.61 30.3709 20.2536 31.2199 18.7204C31.3459 18.4933 31.4718 18.2662 31.5888 18.0164H35.4936C35.1153 18.5709 34.6877 19.0893 34.216 19.5653H34.189Z" fill="#F08519"/>
<path fill-rule="evenodd" clip-rule="evenodd" d="M27.05 7.02441L6.69815 7.37416L6.2168 7.72845L28.3366 8.04641L27.05 7.02441Z" fill="#F08519"/>
<path fill-rule="evenodd" clip-rule="evenodd" d="M37.7886 10.8037C39.8669 8.35548 39.0032 5.74826 35.5393 5.75735L8.81284 5.8164L8.36297 6.14343L35.4493 6.59765C38.8907 6.65216 38.3599 9.10949 36.4525 11.5259C39.642 11.3443 42.4537 11.376 42.6471 12.8886C34.3156 14.0877 27.1268 17.3445 18.7728 21.0146C22.4032 17.6488 27.0638 14.8645 31.9403 12.1982L33.5059 12.1482L32.7411 11.5396L0.656801 11.8166L0 12.3072L30.4468 12.18C23.7258 15.6957 18.5779 19.4415 15.003 23.4174C24.9944 18.9206 36.394 14.0877 44.1227 13.47C43.2184 11.1944 41.6844 10.622 37.7886 10.8037Z" fill="#F08519"/>
<path fill-rule="evenodd" clip-rule="evenodd" d="M29.0166 8.58691L4.75995 8.8004L4.22461 9.19557L29.9973 9.36817L29.0166 8.58691Z" fill="#F08519"/>
<path fill-rule="evenodd" clip-rule="evenodd" d="M30.7035 9.92676L2.68602 10.3265L2.22266 10.6717L31.7562 10.7625L30.7035 9.92676Z" fill="#F08519"/>
<path fill-rule="evenodd" clip-rule="evenodd" d="M40.8882 12.4209C40.8898 12.3153 40.8516 12.213 40.7815 12.1346C40.7114 12.0563 40.6145 12.0076 40.5104 11.9984C40.4599 11.9941 40.409 12.0002 40.3609 12.0163C40.3128 12.0324 40.2685 12.0583 40.2306 12.0923C40.1927 12.1263 40.1621 12.1677 40.1406 12.2141C40.1191 12.2604 40.1071 12.3107 40.1055 12.3618C40.105 12.4671 40.1435 12.5688 40.2134 12.6469C40.2833 12.7251 40.3796 12.774 40.4834 12.7842C40.534 12.7893 40.5851 12.7836 40.6335 12.7678C40.6819 12.7519 40.7265 12.7261 40.7645 12.6919C40.8025 12.6578 40.8331 12.6161 40.8544 12.5695C40.8757 12.5228 40.8872 12.4722 40.8882 12.4209Z" fill="#F08519"/>
<path fill-rule="evenodd" clip-rule="evenodd" d="M7.98047 26.9104H9.528C9.80209 26.8885 10.0737 26.9766 10.2838 27.1557C10.3711 27.2467 10.4387 27.3551 10.4821 27.474C10.5254 27.5929 10.5437 27.7197 10.5357 27.8461C10.5421 27.9785 10.521 28.1107 10.4737 28.2343C10.4265 28.3579 10.3541 28.4701 10.2613 28.5638C10.025 28.7541 9.72587 28.8466 9.42453 28.8227H8.91619V29.9446H7.98047V26.9104ZM8.91619 28.2095H9.14112C9.27562 28.2226 9.4105 28.1889 9.5235 28.1141C9.55852 28.085 9.58646 28.0482 9.60518 28.0064C9.62389 27.9647 9.63289 27.9192 9.63147 27.8734C9.63278 27.8289 9.62508 27.7846 9.60884 27.7432C9.59259 27.7018 9.56815 27.6642 9.537 27.6327C9.43615 27.5535 9.30847 27.5176 9.18161 27.5327H8.91619V28.2095ZM10.9001 28.4321C10.8791 28.2209 10.9049 28.0076 10.9754 27.8076C11.0459 27.6076 11.1595 27.4259 11.3079 27.2756C11.4564 27.1253 11.636 27.0101 11.8338 26.9383C12.0317 26.8665 12.2429 26.8399 12.4521 26.8605C12.6621 26.8467 12.8728 26.8757 13.0714 26.946C13.2701 27.0162 13.4527 27.1262 13.6083 27.2693C13.7487 27.4208 13.857 27.5997 13.9266 27.7949C13.9962 27.9902 14.0257 28.1977 14.0131 28.4048C14.025 28.7055 13.9648 29.0047 13.8377 29.2769C13.7231 29.5018 13.5445 29.6869 13.3249 29.8084C13.0668 29.9435 12.7786 30.0092 12.4881 29.9991C12.1991 30.0088 11.9116 29.9529 11.6469 29.8356C11.4201 29.7207 11.2323 29.5405 11.107 29.3178C10.9557 29.0403 10.8841 28.7257 10.9001 28.4094V28.4321ZM11.8268 28.4321C11.811 28.6603 11.8712 28.8873 11.9978 29.0771C12.0535 29.1418 12.1227 29.1933 12.2005 29.2279C12.2783 29.2625 12.3627 29.2792 12.4476 29.2769C12.532 29.2785 12.6158 29.262 12.6934 29.2283C12.771 29.1946 12.8406 29.1446 12.8975 29.0816C13.0266 28.8696 13.0835 28.6207 13.0594 28.373C13.0774 28.1517 13.0168 27.9311 12.8885 27.7508C12.832 27.6869 12.7626 27.6361 12.685 27.6016C12.6074 27.5672 12.5234 27.5499 12.4386 27.5509C12.3536 27.5483 12.2691 27.5649 12.1913 27.5995C12.1135 27.6341 12.0443 27.6857 11.9888 27.7508C11.8582 27.9455 11.7979 28.1796 11.8178 28.4139L11.8268 28.4321ZM14.355 28.9408L15.2548 28.8863C15.2641 29.0053 15.3045 29.1197 15.3717 29.2179C15.4206 29.2791 15.4832 29.3275 15.5545 29.3591C15.6257 29.3907 15.7035 29.4046 15.7811 29.3996C15.8912 29.4067 16.0001 29.3728 16.087 29.3042C16.1218 29.2779 16.1498 29.2435 16.1686 29.204C16.1873 29.1644 16.1964 29.1209 16.195 29.0771C16.1935 29.0368 16.1836 28.9973 16.1657 28.9613C16.1479 28.9252 16.1226 28.8935 16.0915 28.8681C15.9559 28.7772 15.8025 28.7167 15.6417 28.691C15.3257 28.6408 15.0264 28.5146 14.7689 28.3231C14.6841 28.2519 14.6165 28.1621 14.5713 28.0606C14.5261 27.959 14.5044 27.8484 14.508 27.7371C14.5064 27.5754 14.5535 27.417 14.643 27.2829C14.7443 27.1372 14.8848 27.0238 15.0478 26.9559C15.2724 26.8809 15.5089 26.8486 15.7451 26.8605C16.0603 26.8358 16.3751 26.9121 16.6448 27.0785C16.7503 27.1609 16.837 27.2651 16.8991 27.3842C16.9612 27.5034 16.9972 27.6345 17.0047 27.7689L16.132 27.8189C16.1222 27.7035 16.0691 27.5963 15.9835 27.5191C15.8966 27.4505 15.7877 27.4166 15.6776 27.4237C15.5905 27.4161 15.5037 27.4421 15.4347 27.4964C15.4078 27.5151 15.386 27.5403 15.3711 27.5696C15.3562 27.5989 15.3487 27.6315 15.3492 27.6645C15.3501 27.6894 15.3566 27.7139 15.3683 27.736C15.38 27.758 15.3966 27.7771 15.4167 27.7916C15.511 27.8513 15.6168 27.89 15.7271 27.9052C16.0277 27.9587 16.3207 28.0487 16.5999 28.1732C16.7566 28.2459 16.8893 28.3626 16.9822 28.5093C17.0636 28.6462 17.1042 28.8039 17.0992 28.9635C17.1018 29.1542 17.0469 29.3411 16.9418 29.4995C16.8306 29.666 16.6745 29.7969 16.4919 29.8765C16.2529 29.9638 15.9988 30.0009 15.7451 29.9855C15.3662 30.0269 14.9861 29.9195 14.6834 29.6857C14.4846 29.4823 14.3662 29.2126 14.3505 28.9272L14.355 28.9408ZM18.9841 26.9104H19.9154V29.9446H18.9841V26.9104ZM20.5857 26.9104H21.4539L22.5786 28.5865V26.9104H23.4783V29.9446H22.5786L21.4584 28.2822V29.9446H20.5857V26.9104ZM24.0856 26.9104H25.4667C25.6924 26.904 25.9171 26.9425 26.128 27.024C26.2909 27.0941 26.4334 27.2051 26.5419 27.3465C26.6539 27.49 26.7351 27.6556 26.7803 27.8325C26.8299 28.0237 26.8541 28.2208 26.8523 28.4185C26.8629 28.6744 26.8263 28.9301 26.7443 29.1725C26.6778 29.3453 26.5732 29.5007 26.4384 29.6267C26.3207 29.7405 26.177 29.8232 26.02 29.8674C25.8398 29.9187 25.6539 29.9462 25.4667 29.9492H24.0856V26.9104ZM25.0168 27.6009V29.2542H25.2418C25.3841 29.2645 25.527 29.2427 25.6601 29.1906C25.7465 29.1384 25.813 29.0584 25.8491 28.9635C25.9071 28.7944 25.9316 28.6153 25.921 28.4366C25.9469 28.2052 25.8911 27.972 25.7636 27.778C25.695 27.7127 25.6133 27.6631 25.524 27.6326C25.4348 27.602 25.34 27.5912 25.2462 27.6009H25.0168ZM27.2211 28.4321C27.1998 28.2192 27.2258 28.0041 27.2973 27.8027C27.3689 27.6013 27.4841 27.4185 27.6346 27.2679C27.7851 27.1172 27.9671 27.0024 28.1672 26.9319C28.3673 26.8615 28.5805 26.837 28.7912 26.8605C29.0012 26.8467 29.2118 26.8757 29.4105 26.946C29.6091 27.0162 29.7917 27.1262 29.9473 27.2693C30.0877 27.4208 30.196 27.5997 30.2657 27.7949C30.3353 27.9902 30.3647 28.1977 30.3522 28.4048C30.3529 28.7085 30.2803 29.0079 30.1408 29.2769C30.0262 29.5018 29.8476 29.6869 29.6279 29.8084C29.3686 29.9388 29.0805 29.9998 28.7912 29.9855C28.5022 29.9952 28.2147 29.9393 27.9499 29.822C27.7367 29.7058 27.5604 29.531 27.4416 29.3178C27.2925 29.0395 27.221 28.7255 27.2346 28.4094L27.2211 28.4321ZM28.1479 28.4321C28.1386 28.6629 28.2068 28.8902 28.3413 29.0771C28.3972 29.1416 28.4665 29.1929 28.5443 29.2275C28.622 29.262 28.7063 29.2789 28.7912 29.2769C28.8756 29.2788 28.9595 29.2624 29.0372 29.2287C29.1148 29.195 29.1843 29.1448 29.241 29.0816C29.3702 28.8696 29.4271 28.6207 29.403 28.373C29.4193 28.1589 29.3621 27.9456 29.241 27.7689C29.1849 27.7046 29.1156 27.6535 29.0379 27.619C28.9602 27.5845 28.876 27.5674 28.7912 27.5691C28.7062 27.5665 28.6217 27.5831 28.5439 27.6177C28.466 27.6522 28.3968 27.7039 28.3413 27.7689C28.2108 27.9637 28.1504 28.1978 28.1704 28.4321H28.1479ZM30.8471 26.9104H31.7153L32.84 28.5865V26.9104H33.7397V29.9446H32.84L31.7153 28.2822V29.9446H30.8426V26.9104H30.8471ZM34.338 26.9104H36.8212V27.56H35.2647V28.046H36.7043V28.6637H35.2647V29.2588H36.8617V29.9446H34.3335V26.9104H34.338ZM37.2036 28.9408L38.1034 28.8863C38.1127 29.0053 38.1531 29.1197 38.2203 29.2179C38.2692 29.2791 38.3318 29.3275 38.4031 29.3591C38.4743 29.3907 38.552 29.4046 38.6297 29.3996C38.7398 29.4067 38.8487 29.3728 38.9356 29.3042C38.9691 29.2788 38.9963 29.2459 39.0151 29.208C39.0338 29.1702 39.0436 29.1285 39.0436 29.0862C39.0421 29.0459 39.0322 29.0064 39.0143 28.9703C38.9965 28.9343 38.9712 28.9025 38.9401 28.8772C38.8045 28.7862 38.6511 28.7258 38.4902 28.7001C38.1743 28.6499 37.875 28.5237 37.6175 28.3322C37.5302 28.2621 37.4597 28.173 37.4114 28.0715C37.3631 27.97 37.3382 27.8588 37.3386 27.7462C37.337 27.5845 37.3841 27.4261 37.4736 27.292C37.5749 27.1463 37.7154 27.0328 37.8784 26.965C38.1143 26.8771 38.365 26.837 38.6162 26.8469C38.9238 26.827 39.2301 26.9031 39.4934 27.0649C39.5989 27.1472 39.6856 27.2515 39.7477 27.3706C39.8097 27.4897 39.8458 27.6209 39.8533 27.7553L38.9806 27.8053C38.9708 27.6899 38.9177 27.5826 38.8321 27.5055C38.7452 27.4369 38.6363 27.4029 38.5262 27.4101C38.4391 27.4025 38.3523 27.4284 38.2833 27.4828C38.2564 27.5015 38.2346 27.5266 38.2197 27.556C38.2047 27.5853 38.1973 27.6179 38.1978 27.6508C38.1987 27.6758 38.2052 27.7003 38.2169 27.7223C38.2286 27.7444 38.2452 27.7634 38.2653 27.778C38.3596 27.8377 38.4654 27.8764 38.5757 27.8916C38.8762 27.9451 39.1693 28.0351 39.4485 28.1596C39.6052 28.2323 39.7379 28.3489 39.8308 28.4957C39.9122 28.6326 39.9528 28.7903 39.9478 28.9499C39.9504 29.1405 39.8954 29.3275 39.7903 29.4859C39.6792 29.6524 39.5231 29.7833 39.3405 29.8629C39.1039 29.9542 38.8513 29.9959 38.5982 29.9855C38.2194 30.0264 37.8394 29.9191 37.5365 29.6857C37.3377 29.4823 37.2193 29.2126 37.2036 28.9272V28.9408ZM40.4337 26.9104H41.3874V29.9446H40.4337V26.9104ZM43.8751 29.445H42.8224L42.674 29.9446H41.7248L42.8584 26.9104H43.8751L44.9998 29.9446H44.0281L43.8751 29.445ZM43.6817 28.7909L43.3533 27.7144L43.0204 28.8045L43.6817 28.7909Z" fill="#B6B6B7"/>
</svg>
