<svg width="93" height="30" viewBox="0 0 93 30" fill="none" xmlns="http://www.w3.org/2000/svg">
<path d="M17.5914 0.00195312C16.288 0.00195312 15.5078 1.02007 15.5078 2.46999V13.5875C15.5078 15.0102 16.27 16.0419 17.5733 16.0419C18.8767 16.0419 19.6478 15.0102 19.6478 13.5875V2.46999C19.6478 1.02007 18.8541 0.00195312 17.5733 0.00195312" fill="#1756C2"/>
<path d="M27.3014 4.40614H26.3317V3.79709C26.3317 3.11076 26.7286 2.82441 27.7749 2.94259C28.8888 3.04713 29.1279 2.33354 29.1279 1.76539C29.1311 1.56612 29.0925 1.36841 29.0148 1.18516C28.9371 1.0019 28.822 0.837203 28.6769 0.701814C27.9463 0.00185511 26.1198 0.0018551 26.1198 0.0018551C25.1309 -0.0260699 24.1585 0.261882 23.3417 0.824534C22.2278 1.69721 22.3225 3.29257 22.3225 3.29257V4.40614H22.1466C21.9519 4.39185 21.7562 4.41793 21.5719 4.48277C21.3875 4.5476 21.2182 4.64982 21.0746 4.78312C20.9309 4.91643 20.8158 5.07798 20.7365 5.25782C20.6572 5.43766 20.6152 5.63198 20.6133 5.82878C20.6133 6.79236 21.5152 7.23324 22.2278 7.23324H22.3225V13.8692C22.3014 14.152 22.3397 14.4361 22.4349 14.703C22.5301 14.9699 22.68 15.2135 22.8749 15.4181C23.0698 15.6227 23.3052 15.7835 23.566 15.8902C23.8267 15.9969 24.1068 16.047 24.388 16.0373C25.7815 16.0373 26.3272 15.0419 26.3272 13.9328V7.23324H27.3014C27.838 7.23324 28.9069 6.96962 28.9069 5.86969C28.9069 4.76975 28.0635 4.3925 27.3014 4.3925" fill="#1756C2"/>
<path d="M38.958 4.03779C38.6574 4.03354 38.3601 4.10041 38.0899 4.23303C37.8197 4.36565 37.5841 4.56031 37.4021 4.80138C36.6719 4.29791 35.8064 4.03147 34.9217 4.03779C30.705 4.03779 28.8379 7.21942 28.8379 10.3192C28.8379 13.619 31.0928 16.1734 34.9217 16.1734C35.8031 16.1627 36.6628 15.896 37.3976 15.4053C37.577 15.6506 37.8126 15.8485 38.0843 15.9823C38.356 16.116 38.6557 16.1816 38.958 16.1734C40.2703 16.1734 41.019 15.1553 41.019 13.719V6.50582C41.019 5.09227 40.2703 4.03779 38.958 4.03779ZM32.9509 10.1602C32.9509 7.53304 34.2136 7.06488 35.066 7.06488H35.1697C36.1483 7.14215 36.915 7.79666 36.915 10.2738C36.915 12.7509 36.0807 13.1963 35.2193 13.2418H35.0885C34.1189 13.2418 32.9509 12.7873 32.9509 10.1602Z" fill="#1756C2"/>
<path d="M13.9296 12.8831C13.7131 12.2331 10.2315 2.22006 10.0602 1.74736C9.91984 1.30175 9.64367 0.912087 9.27094 0.63379C8.57192 0.102003 7.08367 0.133819 7.08367 0.133819C7.08367 0.133819 5.61345 0.0974577 4.90541 0.63379C4.53522 0.911704 4.26331 1.30204 4.12972 1.74736C3.95383 2.20188 0.472245 12.2331 0.228714 12.8831C-0.0148175 13.533 -0.132073 14.2966 0.228714 14.9284C0.431895 15.2583 0.712735 15.5325 1.0463 15.7268C1.37986 15.921 1.75584 16.0293 2.14088 16.042C2.58374 16.0698 3.02236 15.9411 3.38125 15.6781C3.74013 15.4151 3.99684 15.0343 4.10717 14.6011C4.43188 13.5148 4.60326 12.9876 4.60326 12.9876H9.56408C9.56408 12.9876 9.72642 13.5148 10.0511 14.6011C10.162 15.0322 10.4175 15.4114 10.7743 15.674C11.1312 15.9367 11.5672 16.0667 12.0084 16.042C12.3951 16.04 12.7745 15.9362 13.1092 15.7409C13.4438 15.5455 13.7219 15.2655 13.9161 14.9284C14.0665 14.6088 14.1445 14.2595 14.1445 13.9057C14.1445 13.552 14.0665 13.2027 13.9161 12.8831H13.9296ZM5.5413 9.5469L7.08367 4.46993L8.63054 9.5469H5.5413Z" fill="#1756C2"/>
<path d="M87.5747 28.0953H0.0117188V29.9998H87.5747C88.8545 29.9982 90.0928 29.5415 91.0712 28.71C92.0497 27.8785 92.7056 26.7257 92.9233 25.4546C92.2981 26.2865 91.4893 26.9603 90.5609 27.4226C89.6326 27.8849 88.6101 28.123 87.5747 28.1181" fill="#EFCF00"/>
<path d="M92.986 21.328V19.8008H5.4411C4.00872 19.8103 2.6377 20.388 1.62483 21.4088C0.611965 22.4296 0.0387518 23.8114 0.0292969 25.255V26.8185H87.5742C89.0095 26.8185 90.386 26.2439 91.4009 25.221C92.4158 24.1982 92.986 22.8109 92.986 21.3643" fill="#D60F27"/>
<path d="M58.9296 3.91523C56.7153 3.91523 54.5596 6.90596 53.7975 8.06044C53.8418 7.68166 53.9126 7.30651 54.0094 6.93778C54.1718 6.17419 54.3116 5.1197 53.7975 4.46065C53.6295 4.27007 53.4198 4.12155 53.1849 4.02687C52.9501 3.9322 52.6966 3.89397 52.4445 3.91523C50.3925 3.91523 48.3631 6.55144 47.4837 7.84227C47.5874 7.46502 47.7092 6.99232 47.7903 6.71961C47.9256 6.08783 48.1917 5.09698 47.7678 4.51974C47.6158 4.33569 47.4209 4.19245 47.2005 4.10283C46.9802 4.01321 46.7413 3.97998 46.5051 4.00613C45.7917 4.05031 45.0891 4.20357 44.4215 4.46065L44.205 4.56065L44.4035 4.67882C44.4035 4.67882 44.7011 4.9788 44.4711 6.55144C44.0661 9.04145 43.5195 11.506 42.834 13.9328C42.7311 14.186 42.6861 14.4592 42.7025 14.7323C42.7189 15.0054 42.7962 15.2712 42.9287 15.51C43.1086 15.7122 43.3325 15.8696 43.5829 15.9698C43.8334 16.0699 44.1034 16.1101 44.3719 16.0872C44.9658 16.0896 45.5543 15.9738 46.1037 15.7463L46.2345 15.7145L46.1307 15.5782C46.1307 15.5782 45.6798 14.8782 46.2751 13.5374C48.327 8.94221 49.9866 7.1105 50.4466 6.79688C50.5594 6.74688 50.6225 6.68325 50.6992 6.68325C50.7176 6.68194 50.7359 6.68782 50.7501 6.69966C50.7644 6.71149 50.7736 6.7284 50.7759 6.74688C50.8255 6.76961 50.8345 6.88324 50.8255 6.98778C50.5117 9.02589 50.0886 11.0454 49.5582 13.0374C49.468 13.4465 49.3688 13.7783 49.3147 14.0555C49.2272 14.312 49.1957 14.5843 49.2221 14.8542C49.2486 15.124 49.3325 15.3849 49.468 15.6191C49.6316 15.7821 49.8286 15.9073 50.0451 15.9858C50.2616 16.0643 50.4925 16.0942 50.7217 16.0736C51.3266 16.0602 51.9247 15.9418 52.4896 15.7236L52.6565 15.6554L52.5302 15.5418C52.5302 15.5009 52.0792 14.9191 52.7106 13.4965C54.2259 9.96033 56.2734 7.19685 56.8055 6.79688C56.8964 6.71596 57.0097 6.66518 57.1302 6.65143C57.1302 6.65143 57.1573 6.65143 57.1889 6.70143C57.2454 6.81855 57.2612 6.95139 57.2339 7.07868C57.2339 7.1514 57.1663 7.36957 57.1167 7.69682C56.8145 8.91948 56.2734 11.4511 55.9802 13.2101C55.8043 14.2601 55.89 15.0509 56.2734 15.4827C56.452 15.6749 56.67 15.8256 56.9122 15.9245C57.1543 16.0233 57.4149 16.068 57.6759 16.0554C58.404 16.0139 59.1085 15.7804 59.7189 15.3782L59.8722 15.2736L59.7324 15.1782C59.7324 15.1782 58.9928 14.4828 59.3581 12.4193C59.6106 11.033 59.9444 9.44218 60.1924 8.2877C60.3097 7.70591 60.3863 7.22413 60.454 6.9605V6.86051C60.5893 6.22418 60.7877 5.04244 60.2465 4.41066C60.0839 4.22048 59.8778 4.07308 59.646 3.98122C59.4142 3.88935 59.1637 3.85578 58.9161 3.88341" fill="#D60F27"/>
<path d="M71.8812 4.03776C71.3374 4.00541 70.8029 4.18989 70.3929 4.55137C69.7027 4.14061 68.917 3.92108 68.1155 3.91504C67.154 3.91422 66.2134 4.19705 65.4096 4.72863C64.0928 5.62002 63.0444 6.85901 62.379 8.31024C60.5119 11.9737 61.4093 14.6508 61.8739 15.3053C62.0781 15.5884 62.3516 15.8134 62.6677 15.9584C62.9838 16.1033 63.3318 16.1633 63.6778 16.1325C64.8323 16.1325 66.3837 15.678 68.7063 11.9737C68.6167 12.597 68.567 13.2256 68.5574 13.8554C68.5574 15.8734 69.969 16.087 70.5508 16.087C72.0571 16.087 72.5847 15.378 72.5847 15.3553L72.6479 15.278L72.5847 15.2007C72.5847 15.2007 71.8857 14.4735 72.3367 10.7192C72.5845 8.62209 73.1456 6.57483 74.0008 4.64682L74.0594 4.55137L73.9557 4.48319C73.2989 4.21108 72.5998 4.05724 71.8902 4.02867L71.8812 4.03776ZM65.3645 13.3872C65.0578 13.3872 64.9135 12.8554 64.9135 12.3009C64.9135 11.7464 65.2111 8.23751 66.6633 6.46489C66.7971 6.30569 66.9608 6.17473 67.145 6.07957C67.3292 5.9844 67.5303 5.9269 67.7366 5.91038C68.6657 5.91038 69.5406 6.91486 69.7525 7.17394C68.7392 9.29782 67.4468 11.2745 65.9102 13.0509C65.7805 13.2339 65.5844 13.358 65.3645 13.3963" fill="#D60F27"/>
<path d="M83.43 3.91502C81.8019 3.91502 79.8221 6.64213 79.0194 7.89206C79.1547 7.34663 79.3576 6.5285 79.5109 5.80582C79.5703 5.59119 79.5849 5.36651 79.5539 5.14591C79.5228 4.92531 79.4468 4.71359 79.3306 4.52407C79.1477 4.3479 78.9295 4.21333 78.6907 4.12943C78.4518 4.04553 78.1979 4.01426 77.946 4.03774C77.2348 4.07572 76.5329 4.21813 75.8625 4.46044L75.7001 4.52862L75.8444 4.65134C75.8444 4.65134 76.1466 5.10586 75.9617 6.61031C75.7001 8.26022 74.6629 12.3645 74.2254 14.0235C74.1226 14.2639 74.0772 14.5253 74.0929 14.7866C74.1085 15.0479 74.1848 15.3018 74.3156 15.528C74.6854 16.0325 75.407 16.0916 75.9031 16.0916C76.4937 16.0901 77.0785 15.9744 77.6258 15.7507L77.7882 15.7189L77.689 15.5825C77.689 15.5825 77.2876 14.9371 77.7476 13.7099C78.9923 10.5283 80.3768 8.71019 81.2066 8.06023C81.3732 7.93122 81.5742 7.85525 81.7839 7.84206C82.2349 7.84206 82.528 8.36021 82.528 8.36021L82.5957 8.48747L82.6994 8.38294C83.3348 7.75843 83.842 7.01403 84.1922 6.19216C84.3861 5.69219 84.6431 4.80133 84.2598 4.28772C84.1666 4.15716 84.0406 4.05387 83.8948 3.98839C83.7491 3.92291 83.5887 3.89759 83.43 3.91502Z" fill="#D60F27"/>
<path d="M92.8317 5.40146C91.8187 5.62076 90.7821 5.70934 89.7469 5.66508H89.3411C89.4087 5.2742 89.6838 4.16517 89.977 3.11069C90.0802 2.87236 90.125 2.61253 90.1077 2.35308C90.0905 2.09363 90.0116 1.84217 89.8777 1.61987C89.7018 1.44475 89.4883 1.3127 89.2538 1.23389C89.0192 1.15509 88.7698 1.13164 88.5248 1.16535C87.748 1.21845 86.9812 1.37119 86.2428 1.61987L86.0489 1.67895L86.2157 1.83349C86.7208 2.35619 86.1752 4.86058 85.9406 5.79235C85.9136 5.84234 84.6328 10.7921 84.6328 13.1919C84.6328 15.1827 85.7152 16.169 87.7897 16.169C88.9894 16.194 90.1623 15.8096 91.1179 15.0782C91.3257 14.9083 91.4825 14.6837 91.5709 14.4293C91.6593 14.1748 91.6758 13.9007 91.6185 13.6373C91.5734 13.3872 91.4881 13.1462 91.366 12.9237L91.2983 12.7783L91.1766 12.8919C90.7914 13.2091 90.3509 13.4511 89.8777 13.6055C89.6089 13.7004 89.3279 13.7555 89.0434 13.7691C88.7748 13.7605 88.5184 13.6539 88.3219 13.4692C87.8438 12.9737 88.1505 11.1966 88.2542 10.6284C88.4165 9.71939 88.8089 8.04676 88.8946 7.6286H90.6985C90.9892 7.65432 91.2819 7.61916 91.5585 7.52533C91.835 7.4315 92.0892 7.28103 92.3052 7.08338C92.5212 6.88574 92.6943 6.64519 92.8137 6.37685C92.933 6.10852 92.9959 5.81821 92.9985 5.52418V5.34237L92.8317 5.40146Z" fill="#D60F27"/>
</svg>
