<?xml version="1.0" encoding="UTF-8" standalone="no"?>
<svg
   xmlns:dc="http://purl.org/dc/elements/1.1/"
   xmlns:cc="http://creativecommons.org/ns#"
   xmlns:rdf="http://www.w3.org/1999/02/22-rdf-syntax-ns#"
   xmlns:svg="http://www.w3.org/2000/svg"
   xmlns="http://www.w3.org/2000/svg"
   id="svg1576"
   version="1.1"
   viewBox="0 0 64 64">
  <metadata
     id="metadata1580">
    <rdf:RDF>
      <cc:Work
         rdf:about="">
        <dc:format>image/svg+xml</dc:format>
        <dc:type
           rdf:resource="http://purl.org/dc/dcmitype/StillImage" />
        <dc:title>icon PHP Hosting</dc:title>
      </cc:Work>
    </rdf:RDF>
  </metadata>
  <defs
     id="defs1549">
    <style
       id="style1547">.cls-1{fill:#fff;}.cls-1,.cls-4{stroke:#298eea;stroke-miterlimit:10;stroke-width:2px;}.cls-2{fill:#d4e8fb;}.cls-3{fill:#298eea;}.cls-4{fill:none;stroke-linecap:round;}</style>
  </defs>
  <title
     id="title1551">icon PHP Hosting</title>
  <g
     id="remote">
    <path
       id="path1553"
       d="M50.875,39.84v10c0,1.791-8.451,3.242-18.875,3.242S13.125,51.631,13.125,49.84V39.884"
       class="cls-1" />
    <path
       id="path1555"
       d="M50.875,30.21v10c0,1.791-8.451,3.242-18.875,3.242S13.125,42,13.125,40.21V30.254"
       class="cls-1" />
    <path
       id="path1557"
       d="M50.875,20.162v10c0,1.791-8.451,3.242-18.875,3.242s-18.875-1.452-18.875-3.242V20.206"
       class="cls-1" />
    <path
       id="path1559"
       d="M50.875,10.16v10C50.875,21.95,42.424,23.4,32,23.4S13.125,21.95,13.125,20.16V10.2"
       class="cls-1" />
    <ellipse
       id="ellipse1561"
       ry="3.242"
       rx="18.875"
       cy="10.16"
       cx="32"
       class="cls-1" />
    <path
       id="path1563"
       d="M32,58.968A13.968,13.968,0,1,1,45.968,45,13.983,13.983,0,0,1,32,58.968Z"
       class="cls-2" />
    <path
       id="path1565"
       d="M32,32.032A12.968,12.968,0,1,1,19.032,45,12.983,12.983,0,0,1,32,32.032m0-2A14.968,14.968,0,1,0,46.968,45,14.968,14.968,0,0,0,32,30.032Z"
       class="cls-3" />
    <path
       id="path1567"
       d="M32,35.125A9.875,9.875,0,0,1,41.875,45"
       class="cls-4" />
    <path
       id="path1569"
       d="M32,39.84A5.16,5.16,0,0,1,37.16,45"
       class="cls-4" />
    <path
       id="path1571"
       d="M31,45v1.542A4.458,4.458,0,0,0,35.458,51H36v7"
       class="cls-4" />
    <circle
       id="circle1573"
       r="2.016"
       cy="44.956"
       cx="31"
       class="cls-3" />
  </g>
</svg>
