<?xml version="1.0" encoding="UTF-8" standalone="no"?>
<svg
   xmlns:dc="http://purl.org/dc/elements/1.1/"
   xmlns:cc="http://creativecommons.org/ns#"
   xmlns:rdf="http://www.w3.org/1999/02/22-rdf-syntax-ns#"
   xmlns:svg="http://www.w3.org/2000/svg"
   xmlns="http://www.w3.org/2000/svg"
   version="1.1"
   viewBox="0 0 64 64"
   data-name="Layer 1"
   id="Layer_1">
  <metadata
     id="metadata1506">
    <rdf:RDF>
      <cc:Work
         rdf:about="">
        <dc:format>image/svg+xml</dc:format>
        <dc:type
           rdf:resource="http://purl.org/dc/dcmitype/StillImage" />
        <dc:title>icon PHP Hosting</dc:title>
      </cc:Work>
    </rdf:RDF>
  </metadata>
  <defs
     id="defs1477">
    <style
       id="style1475">.cls-1{fill:#d4e8fb;}.cls-2{fill:#298eea;}.cls-3{fill:#fff;}.cls-4{fill:none;stroke:#298eea;stroke-miterlimit:10;}.cls-5{fill:#c9c9c9;}</style>
  </defs>
  <title
     id="title1479">icon PHP Hosting</title>
  <path
     id="path1481"
     d="M6.216,11.813H53.252a.216.216,0,0,1,.216.216V47.1a.217.217,0,0,1-.217.217H6.216A.216.216,0,0,1,6,47.1V12.03a.216.216,0,0,1,.216-.216Z"
     class="cls-1" />
  <path
     id="path1483"
     d="M52.469,12.814V46.321H7V12.814H52.469m.784-2H6.216A1.22,1.22,0,0,0,5,12.03V47.1a1.22,1.22,0,0,0,1.216,1.216H53.252A1.22,1.22,0,0,0,54.469,47.1V12.03a1.22,1.22,0,0,0-1.216-1.216Z"
     class="cls-2" />
  <rect
     id="rect1485"
     ry="0.217"
     rx="0.217"
     height="35.507"
     width="47.469"
     y="16.679"
     x="10.531"
     class="cls-3" />
  <path
     id="path1487"
     d="M57,17.679V51.186H11.531V17.679H57m.784-2H10.748A1.22,1.22,0,0,0,9.531,16.9V51.97a1.22,1.22,0,0,0,1.216,1.216H57.784A1.22,1.22,0,0,0,59,51.97V16.9a1.22,1.22,0,0,0-1.216-1.216Z"
     class="cls-2" />
  <line
     id="line1489"
     y2="24.5"
     x2="59"
     y1="24.5"
     x1="10"
     class="cls-4" />
  <circle
     id="circle1491"
     r="1.368"
     cy="20.596"
     cx="53.987"
     class="cls-5" />
  <circle
     id="circle1493"
     r="1.368"
     cy="20.596"
     cx="48.513"
     class="cls-5" />
  <circle
     id="circle1495"
     r="1.368"
     cy="20.596"
     cx="43.039"
     class="cls-5" />
  <path
     id="path1497"
     d="M27.1,44.354a.608.608,0,0,1-.482-.238L21.63,37.634,26.9,30.793a.608.608,0,0,1,.965.741l-4.695,6.1,4.419,5.741a.608.608,0,0,1-.482.979Z"
     class="cls-2" />
  <path
     id="path1499"
     d="M40.761,44.354a.608.608,0,0,0,.482-.238l4.989-6.483-5.265-6.841a.608.608,0,1,0-.965.741l4.695,6.1-4.419,5.741a.608.608,0,0,0,.482.979Z"
     class="cls-2" />
  <path
     id="path1501"
     d="M30.748,45.33a.6.6,0,0,1-.246-.052.607.607,0,0,1-.31-.8L36.68,29.828a.608.608,0,0,1,1.112.492L31.3,44.967A.609.609,0,0,1,30.748,45.33Z"
     class="cls-2" />
</svg>
