<?xml version="1.0" encoding="UTF-8" standalone="no"?>
<svg
   xmlns:dc="http://purl.org/dc/elements/1.1/"
   xmlns:cc="http://creativecommons.org/ns#"
   xmlns:rdf="http://www.w3.org/1999/02/22-rdf-syntax-ns#"
   xmlns:svg="http://www.w3.org/2000/svg"
   xmlns="http://www.w3.org/2000/svg"
   id="svg1459"
   version="1.1"
   viewBox="0 0 64 64">
  <metadata
     id="metadata1463">
    <rdf:RDF>
      <cc:Work
         rdf:about="">
        <dc:format>image/svg+xml</dc:format>
        <dc:type
           rdf:resource="http://purl.org/dc/dcmitype/StillImage" />
        <dc:title>icon PHP Hosting</dc:title>
      </cc:Work>
    </rdf:RDF>
  </metadata>
  <defs
     id="defs1432">
    <style
       id="style1430">.cls-1,.cls-8{fill:none;}.cls-1,.cls-6{stroke:#288eea;}.cls-1,.cls-5,.cls-6,.cls-7{stroke-miterlimit:10;}.cls-1,.cls-7,.cls-8{stroke-width:2px;}.cls-2,.cls-5,.cls-7{fill:#d4e8fb;}.cls-3{fill:#288eea;}.cls-4{fill:#272525;}.cls-5,.cls-7,.cls-8{stroke:#298eea;}.cls-5,.cls-8{stroke-linecap:round;}.cls-6{fill:#fff;stroke-width:0.75px;}.cls-8{stroke-linejoin:round;}</style>
  </defs>
  <title
     id="title1434">icon PHP Hosting</title>
  <g
     data-name="Layer 6"
     id="Layer_6">
    <path
       id="path1436"
       d="M32,6.7,9.923,14.537s.339,14.9,4.067,24.8C19.07,52.832,32,57.3,32,57.3s12.93-4.47,18.011-17.964c3.729-9.9,4.067-24.8,4.067-24.8Z"
       class="cls-1" />
    <path
       id="path1438"
       d="M31.608,9.9V32.277H15.155A88.836,88.836,0,0,1,13.2,16.44Z"
       class="cls-2" />
    <rect
       id="rect1440"
       height="0.158"
       width="0.158"
       y="33.277"
       x="33.158"
       class="cls-3" />
    <path
       id="path1442"
       d="M48.573,33.434a38.3,38.3,0,0,1-1.4,4.686C43.241,48.568,33.659,52.527,32.316,53.038v-19.6Z"
       class="cls-2" />
    <rect
       id="rect1444"
       height="0.158"
       width="0.158"
       y="33.277"
       x="33.158"
       class="cls-4" />
    <rect
       id="rect1446"
       height="0.158"
       width="0.158"
       y="33.277"
       x="33.158"
       class="cls-4" />
    <circle
       id="circle1448"
       r="14.125"
       cy="31.257"
       cx="32"
       class="cls-5" />
    <path
       id="path1450"
       d="M32,20.51A10.747,10.747,0,1,1,21.253,31.257"
       class="cls-6" />
    <path
       id="path1452"
       d="M21.253,31.257A10.747,10.747,0,0,1,32,20.51"
       class="cls-6" />
    <line
       id="line1454"
       y2="41.833"
       x2="32"
       y1="28.907"
       x1="32"
       class="cls-7" />
    <polyline
       id="polyline1456"
       points="26.878 33.065 32.049 27.893 37.122 32.966"
       class="cls-8" />
  </g>
</svg>
